<svg width="475" height="475" viewBox="0 0 475 475" fill="none" xmlns="http://www.w3.org/2000/svg">
<path d="M243.325 225.801V242.913C243.325 247.773 240.913 250.367 236.531 250.367C232.124 250.367 229.697 247.698 229.697 242.705V225.82H223.634V242.913C223.634 251.323 228.306 256.143 236.451 256.143C244.673 256.143 249.388 251.231 249.388 242.666V225.801H243.325ZM265.633 225.801L252.464 255.677H258.653L261.195 249.891L261.377 249.457H275.058L277.741 255.677H284.098L271.052 225.978L270.935 225.801L265.633 225.801ZM301.684 225.801L294.898 246.357L288.293 225.816H281.84L292.256 255.695H297.277L304.076 236.067L310.871 255.695H315.934L326.325 225.816H320.037L313.418 246.357L306.63 225.801H301.684ZM361.019 225.801V255.651H367.002V225.801H361.019ZM189.402 225.803V255.694H195.467V243.554H209.161V255.694H215.228V225.803H209.161V237.861H195.467V225.803H189.402ZM331.215 225.823V255.673H353.788V250.231H337.198V242.829H348.229V237.385H337.198V231.266H353.21V225.823H331.215ZM268.202 233.365L272.526 243.373H272.511L272.805 244.064H263.632L263.922 243.373H263.917L268.202 233.365Z" fill="black"/>
<path d="M137.49 211C136.568 211.082 134.074 211.649 134.074 211.649H134.073C128.452 213.102 127.124 218.203 127.124 218.203C126.85 219.06 126.725 219.939 126.688 220.767V221.894C126.763 223.636 127.15 224.936 127.15 224.936C129.027 233.261 138.258 246.94 140.242 249.813C140.383 249.953 140.496 249.902 140.496 249.902C140.71 249.843 140.693 249.638 140.693 249.638L140.697 249.639C143.753 219.096 137.49 211 137.49 211L137.49 211ZM147.587 211C147.587 211 141.297 219.1 144.355 249.661H144.359C144.383 249.855 144.52 249.895 144.52 249.895C144.725 249.975 144.83 249.778 144.83 249.778L144.831 249.78C146.866 246.833 156.044 233.229 157.913 224.936C157.913 224.936 158.927 220.922 157.948 218.202C157.948 218.202 156.559 213.023 150.931 211.654C150.931 211.654 149.31 211.243 147.587 211L147.587 211ZM118.574 220.169C118.574 220.169 113.219 225.252 112.953 230.641H112.955V231.457C112.959 231.519 112.962 231.581 112.966 231.643C113.197 235.989 116.465 238.56 116.465 238.56C121.732 243.693 134.485 250.174 137.448 251.644C137.49 251.66 137.643 251.71 137.733 251.596C137.733 251.596 137.78 251.561 137.801 251.497V251.362C137.799 251.354 137.795 251.346 137.791 251.338H137.792C129.677 233.609 118.574 220.169 118.574 220.169L118.574 220.169ZM166.49 220.169C166.49 220.169 155.421 233.567 147.309 251.26L147.313 251.259C147.313 251.259 147.217 251.464 147.372 251.596C147.372 251.596 147.418 251.631 147.482 251.645H147.594C147.614 251.64 147.636 251.632 147.657 251.617V251.619C150.701 250.109 163.355 243.67 168.597 238.561C168.597 238.561 171.917 235.895 172.091 231.615C172.474 225.671 166.49 220.169 166.49 220.169L166.49 220.169ZM176.453 237.77C176.453 237.77 158.407 247.454 149.077 253.747L149.078 253.748L149.08 253.75C149.08 253.75 148.911 253.861 148.97 254.06C148.97 254.06 149.058 254.22 149.187 254.22V254.221C152.529 254.227 165.175 254.241 165.492 254.182C165.492 254.182 167.128 254.117 169.148 253.341C169.148 253.341 173.646 251.911 175.983 246.803C175.983 246.803 177.05 244.668 177.066 241.668V241.541C177.058 240.384 176.895 239.103 176.453 237.77H176.453ZM108.607 237.815C106.965 242.898 109.175 246.993 109.179 247C111.482 251.867 115.879 253.342 115.879 253.342C117.909 254.176 119.94 254.233 119.94 254.233C120.257 254.291 132.566 254.239 135.864 254.224C136.004 254.223 136.081 254.082 136.081 254.082C136.09 254.067 136.099 254.051 136.103 254.037V253.91C136.075 253.825 136.003 253.765 136.003 253.765L136.005 253.764C126.679 247.472 108.607 237.815 108.607 237.815L108.607 237.815ZM135.488 255.786L114.259 256.531C116.561 260.635 120.438 263.824 124.477 262.844C127.264 262.148 133.578 257.743 135.663 256.255L135.656 256.249C135.818 256.104 135.76 255.987 135.76 255.987C135.707 255.796 135.488 255.796 135.488 255.796L135.488 255.786ZM149.548 255.802L149.545 255.81C149.545 255.81 149.359 255.833 149.307 255.973C149.307 255.973 149.262 256.164 149.387 256.258L149.385 256.26C151.417 257.718 157.579 262.025 160.547 262.861C160.547 262.861 160.996 263.014 161.75 263.042H162.203C164.191 262.972 167.656 261.95 170.804 256.542L149.548 255.802Z" fill="black"/>
</svg>
