<svg width="475" height="475" viewBox="0 0 475 475" fill="none" xmlns="http://www.w3.org/2000/svg">
<path fill-rule="evenodd" clip-rule="evenodd" d="M166.198 226.309L160.233 242.226L154.225 226.309H146.77V247.533H151.243V231.395L157.469 247.533H162.381L168.609 231.308V247.533H173.389V226.309H166.198Z" fill="black"/>
<path fill-rule="evenodd" clip-rule="evenodd" d="M204.619 226.309H221.065V247.533H215.976V230.781H209.266C209.222 233.764 209.135 237.754 209.047 239.991C208.873 245.56 207.25 247.533 202.47 247.533H200.188V243.06H201.461C203.61 243.06 204.31 242.096 204.444 239.071C204.576 235.825 204.619 229.377 204.619 226.309Z" fill="black"/>
<path fill-rule="evenodd" clip-rule="evenodd" d="M247.07 226.309H266.409V230.781H259.261V247.533H254.217V230.781H247.07V226.309Z" fill="black"/>
<path fill-rule="evenodd" clip-rule="evenodd" d="M130.732 243.828C128.743 243.772 127.589 242.62 127.589 241.16C127.589 239.954 128.133 239.362 128.852 238.943C129.606 238.503 130.586 238.352 132.108 238.298C133.571 238.245 134.762 238.181 137.031 238.181C137.031 241.803 134.752 243.624 131.922 243.817C131.475 243.848 131.2 243.843 130.732 243.828ZM133.592 225.869H131.772C127.399 225.869 124.083 228.53 123.323 232.488L127.971 233.235C128.606 231.348 130.068 230.062 131.916 229.977C132.512 229.95 132.368 229.956 132.965 229.977C135.713 230.075 136.952 231.391 136.952 234.644C131.749 234.644 128.19 234.399 125.575 236.122C123.439 237.532 122.521 239.094 122.521 241.564C122.521 245.137 125.303 247.968 129.792 247.968H130.409C133.58 247.968 136.14 246.735 137.182 245.245V247.531L141.865 247.534V234.74C141.865 229.803 139.222 225.869 133.592 225.869Z" fill="black"/>
<path fill-rule="evenodd" clip-rule="evenodd" d="M234.864 229.972C235.397 229.944 235.587 229.944 236.12 229.972C238.338 230.083 240.671 231.523 240.895 234.386H229.976C230.23 231.83 232.282 230.113 234.864 229.972ZM245.895 238.351V236.365C245.895 229.514 241.594 225.973 236.037 225.973H234.949C228.97 225.973 225.155 230.049 224.957 235.803C224.931 236.645 224.931 236.996 224.957 238.146C225.099 243.872 229.111 247.726 234.474 247.866C235.457 247.894 235.329 247.891 236.257 247.866C240.925 247.735 244.458 245.041 245.501 241.52L240.984 240.731C239.882 242.937 237.775 243.783 236.092 243.868C235.559 243.897 235.483 243.89 234.949 243.868C232.312 243.76 229.949 241.69 229.949 238.689V238.351H245.895Z" fill="black"/>
<path fill-rule="evenodd" clip-rule="evenodd" d="M193.783 238.506C193.725 241.505 191.542 243.542 188.606 243.69C188.043 243.719 188.079 243.719 187.516 243.69C184.551 243.542 182.397 241.505 182.338 238.506C182.309 237.259 182.309 236.551 182.338 235.302C182.397 232.334 184.551 230.297 187.516 230.149C188.079 230.119 188.043 230.119 188.606 230.149C191.542 230.297 193.725 232.334 193.783 235.335C193.812 236.582 193.812 237.259 193.783 238.506ZM198.784 235.043C198.671 229.906 194.528 225.973 189.054 225.973H187.069C181.594 225.973 177.451 229.906 177.339 235.071C177.309 236.502 177.309 237.338 177.339 238.768C177.451 243.934 181.594 247.866 187.069 247.866H189.054C194.528 247.866 198.671 243.934 198.784 238.768C198.812 237.338 198.812 236.475 198.784 235.043Z" fill="black"/>
<path fill-rule="evenodd" clip-rule="evenodd" d="M114.642 240.04C114.051 242.007 112.468 243.358 110.341 243.654C109.729 243.737 109.121 243.716 108.629 243.648C105.985 243.277 104.122 241.294 104.066 238.506C104.036 237.259 104.036 236.551 104.066 235.302C104.123 232.495 106.077 230.442 108.77 230.154C108.925 230.135 109.511 230.084 110.081 230.145C112.347 230.388 114.05 231.749 114.663 233.814L119.591 232.862C118.534 228.835 114.881 225.973 110.212 225.973H108.797C103.321 225.973 99.1774 229.906 99.0654 235.071C99.0355 236.502 99.0355 237.337 99.0654 238.768C99.1774 243.934 103.321 247.866 108.797 247.866H110.212C114.972 247.866 118.659 244.893 119.633 240.723L114.642 240.04Z" fill="black"/>
<path fill-rule="evenodd" clip-rule="evenodd" d="M372.763 220H278.671C276.488 220 274.719 221.77 274.719 223.952V247.999C274.719 250.182 276.488 251.951 278.671 251.951H372.763C374.947 251.951 376.717 250.182 376.717 247.999V223.952C376.717 221.77 374.947 220 372.763 220ZM285.401 227.818H301.074L297.408 245.378H292.967L295.73 232.079H288.964L286.175 245.378H281.734L285.401 227.818ZM321.727 227.818H308.324C307.55 231.64 306.596 235.9 305.924 238.689C305.51 240.343 304.658 240.987 303.161 240.987H302.282L301.379 245.378H303.368C307.085 245.378 308.996 244.086 310.107 239.413C310.45 237.938 310.784 236.429 311.099 235.004L311.099 235.004C311.331 233.959 311.552 232.96 311.759 232.053H316.382L313.593 245.378H318.061L321.727 227.818ZM345.345 235.227C345.345 233.032 344.105 231.586 341.859 231.586C338.579 231.586 336.566 234.814 336.566 238.042C336.566 240.185 337.934 241.605 340.025 241.605C343.407 241.605 345.345 238.533 345.345 235.227ZM331.995 238.713H329.335L327.94 245.376H323.498L327.166 227.817H331.608L330.214 234.453H332.64C333.854 230.683 336.901 227.558 342.22 227.558C347.049 227.558 349.916 230.347 349.916 234.711C349.916 240.031 346.919 245.634 339.663 245.634C335.042 245.634 332.073 242.999 331.995 238.713ZM369.786 239.643L365.448 238.843C364.699 240.495 363.228 241.605 361.316 241.605C359.354 241.605 358.115 240.315 358.115 238.042C358.115 234.737 360.051 231.586 363.125 231.586C365.086 231.586 366.016 232.775 366.197 234.298L370.742 233.549C370.535 229.83 368.03 227.558 363.51 227.558C356.823 227.558 353.57 233.162 353.57 238.533C353.57 242.897 356.565 245.634 360.981 245.634C365.705 245.634 368.444 243.335 369.786 239.643Z" fill="black"/>
</svg>
