                  <svg width="475" height="475" viewBox="0 0 475 475" fill="none" xmlns="http://www.w3.org/2000/svg">
<path d="M99.0952 253.239H91.445L94.8798 247.15L86.2928 232.006H94.0991L98.6268 240.905L102.998 232.006H110.492L99.0952 253.239ZM194.645 253.239H185.121C179.969 253.239 175.753 248.868 175.753 242.935C175.753 236.065 179.969 232.006 185.121 232.006H194.645V237.314H188.556C184.965 237.314 182.779 238.407 182.779 242.779C182.779 247.15 184.809 248.087 188.556 248.087H194.645V253.239ZM219.469 253.239H212.443V238.251L204.481 253.239H196.05V232.006H203.076V246.526L211.038 232.006H219.469V253.239ZM168.572 232.006H160.921L153.427 249.648L145.933 232.006H138.127L129.072 253.395H136.409L137.971 248.868H145.777L147.494 253.395H159.048L164.668 237.939L170.133 253.395H177.471L168.572 232.006ZM140 244.028L142.342 237.939L144.528 244.028H140ZM125.481 232.006H111.117V253.395H117.987V247.15H125.481C132.662 247.15 132.662 240.749 132.662 239.344C132.662 237.939 132.662 232.006 125.481 232.006ZM123.139 241.842H118.143V237.314H123.139C123.919 237.314 125.949 237.314 125.949 239.5C125.949 241.686 123.919 241.842 123.139 241.842ZM234.925 239.968H227.9V237.158H241.17V231.85H220.874V253.239H234.925C242.263 253.239 242.263 248.868 242.263 246.526C242.263 244.184 242.263 240.125 234.925 239.968ZM233.676 248.399H227.743V244.964H233.676C235.238 244.964 235.238 246.057 235.238 246.526C235.238 246.994 235.238 248.399 233.676 248.399ZM55.3798 221.233C55.8481 221.233 56.4727 221.233 56.941 221.389L56.7849 206.87H58.5023C58.3462 211.866 58.6584 216.706 59.1268 221.702C63.1861 222.638 66.9331 224.668 69.8995 227.791C72.8659 230.913 74.7395 234.66 75.5201 238.876C76.3007 243.091 75.6762 247.306 73.9588 251.21C72.2414 255.113 69.4312 258.235 65.8402 260.577C65.6841 260.421 65.528 260.109 65.2157 259.796C58.8146 251.678 57.2533 239.656 56.7849 229.196C57.7217 229.352 58.5023 229.508 59.4391 229.664C60.8442 238.563 64.7474 246.994 70.9924 253.551C73.1782 250.897 74.4272 247.306 74.115 243.872C73.9588 240.281 72.3976 237.002 70.0557 234.504C67.2454 231.538 63.8106 229.352 59.9074 228.415C58.0339 227.947 56.1604 227.634 54.2869 227.634C52.4134 227.634 50.3837 227.947 48.5102 228.415C40.3916 230.445 34.3027 236.846 34.3027 244.496C34.3027 247.775 35.3956 250.897 37.4252 253.551C43.6703 246.994 47.5734 238.563 48.9786 229.664C49.9153 229.508 50.696 229.508 51.7889 229.196C51.3205 239.812 49.7592 251.678 43.358 259.64C43.2019 259.953 42.8896 260.265 42.7335 260.421C39.1426 258.079 36.4885 254.8 34.7711 250.897C33.0537 246.994 32.5853 242.779 33.3659 238.563C34.1466 234.348 36.1762 230.601 38.9865 227.634C41.7968 224.668 45.6999 222.482 49.7592 221.702C50.3837 210.929 50.2276 206.87 50.2276 206.87H51.945L51.7889 221.389C52.2572 221.233 52.7256 221.077 53.194 221.233V200H55.0675C55.2236 200 55.2236 221.233 55.3798 221.233Z" fill="black"/>
<path d="M55.3847 229.039C55.5408 239.187 56.3215 251.677 59.6001 260.264C59.9124 261.201 60.3807 262.138 61.0053 263.075C58.8195 263.699 56.6337 264.011 54.4479 264.168C52.2622 264.168 50.0764 263.855 47.8906 263.075C48.5151 261.982 48.9835 261.045 49.4519 259.952C52.4183 251.521 53.1989 239.031 53.3551 229.039H55.3847ZM262.252 226.541H263.658V258.703H262.252V226.541Z" fill="black"/>
<path d="M291.652 237.286C291.01 237.286 290.44 237.412 289.942 237.664C289.452 237.91 289.037 238.267 288.698 238.736C288.366 239.205 288.114 239.771 287.941 240.435C287.767 241.098 287.681 241.845 287.681 242.674C287.681 243.793 287.818 244.748 288.092 245.542C288.373 246.328 288.806 246.931 289.391 247.349C289.975 247.76 290.729 247.966 291.652 247.966C292.294 247.966 292.936 247.894 293.578 247.749C294.227 247.605 294.931 247.399 295.688 247.133V249.946C294.988 250.234 294.299 250.44 293.621 250.563C292.943 250.693 292.182 250.757 291.338 250.757C289.708 250.757 288.366 250.422 287.313 249.751C286.267 249.073 285.491 248.128 284.987 246.916C284.482 245.697 284.229 244.276 284.229 242.653C284.229 241.455 284.391 240.359 284.716 239.363C285.041 238.368 285.517 237.506 286.144 236.777C286.772 236.049 287.547 235.486 288.471 235.089C289.394 234.692 290.455 234.494 291.652 234.494C292.438 234.494 293.225 234.595 294.011 234.797C294.804 234.992 295.562 235.262 296.283 235.609L295.201 238.335C294.61 238.054 294.015 237.809 293.416 237.6C292.817 237.39 292.229 237.286 291.652 237.286ZM304.724 250.541H301.369V237.513H297.074V234.721H309.02V237.513H304.724V250.541ZM316.064 234.721C318.106 234.721 319.595 235.161 320.533 236.041C321.471 236.914 321.94 238.119 321.94 239.655C321.94 240.348 321.835 241.012 321.626 241.646C321.417 242.274 321.074 242.833 320.598 243.324C320.129 243.814 319.502 244.204 318.715 244.492C317.929 244.774 316.959 244.914 315.805 244.914H314.365V250.541H311.011V234.721H316.064ZM315.891 237.47H314.365V242.166H315.469C316.097 242.166 316.641 242.083 317.103 241.917C317.565 241.751 317.922 241.491 318.174 241.138C318.427 240.784 318.553 240.33 318.553 239.774C318.553 238.995 318.337 238.418 317.904 238.043C317.471 237.661 316.8 237.47 315.891 237.47ZM334.168 250.541L333.021 246.775H327.253L326.106 250.541H322.492L328.076 234.656H332.177L337.782 250.541H334.168ZM332.22 243.962L331.073 240.283C331.001 240.038 330.903 239.724 330.781 239.342C330.665 238.952 330.546 238.559 330.424 238.162C330.308 237.758 330.215 237.408 330.142 237.113C330.07 237.408 329.969 237.776 329.839 238.216C329.717 238.649 329.598 239.06 329.482 239.45C329.367 239.839 329.284 240.117 329.233 240.283L328.097 243.962H332.22ZM352.13 250.541H348.3L344.621 244.557L340.942 250.541H337.349L342.597 242.382L337.685 234.721H341.386L344.794 240.413L348.138 234.721H351.752L346.785 242.566L352.13 250.541ZM368.037 242.609C368.037 243.829 367.886 244.94 367.583 245.942C367.28 246.938 366.818 247.796 366.198 248.518C365.585 249.239 364.805 249.794 363.86 250.184C362.915 250.566 361.797 250.757 360.506 250.757C359.215 250.757 358.097 250.566 357.152 250.184C356.207 249.794 355.424 249.239 354.804 248.518C354.19 247.796 353.732 246.934 353.429 245.931C353.126 244.929 352.975 243.814 352.975 242.588C352.975 240.95 353.242 239.526 353.776 238.314C354.317 237.095 355.146 236.15 356.264 235.479C357.382 234.808 358.804 234.472 360.528 234.472C362.245 234.472 363.655 234.808 364.759 235.479C365.869 236.15 366.692 237.095 367.226 238.314C367.767 239.533 368.037 240.965 368.037 242.609ZM356.492 242.609C356.492 243.713 356.629 244.665 356.903 245.466C357.184 246.26 357.621 246.873 358.212 247.306C358.804 247.731 359.568 247.944 360.506 247.944C361.458 247.944 362.23 247.731 362.822 247.306C363.413 246.873 363.842 246.26 364.109 245.466C364.383 244.665 364.521 243.713 364.521 242.609C364.521 240.95 364.21 239.645 363.59 238.692C362.97 237.74 361.949 237.264 360.528 237.264C359.583 237.264 358.811 237.48 358.212 237.913C357.621 238.339 357.184 238.952 356.903 239.753C356.629 240.546 356.492 241.499 356.492 242.609ZM370.873 234.721H375.796C377.902 234.721 379.497 235.017 380.579 235.609C381.661 236.2 382.202 237.239 382.202 238.725C382.202 239.324 382.105 239.865 381.91 240.348C381.722 240.831 381.448 241.228 381.087 241.538C380.727 241.848 380.287 242.05 379.767 242.144V242.252C380.294 242.361 380.77 242.548 381.196 242.815C381.621 243.075 381.96 243.457 382.213 243.962C382.472 244.46 382.602 245.123 382.602 245.953C382.602 246.912 382.368 247.735 381.899 248.42C381.43 249.105 380.759 249.632 379.886 250C379.021 250.361 377.989 250.541 376.792 250.541H370.873V234.721ZM374.227 240.986H376.175C377.149 240.986 377.823 240.835 378.198 240.532C378.573 240.222 378.761 239.767 378.761 239.169C378.761 238.563 378.537 238.13 378.09 237.87C377.65 237.603 376.95 237.47 375.991 237.47H374.227V240.986ZM374.227 243.648V247.771H376.413C377.423 247.771 378.126 247.576 378.523 247.187C378.92 246.797 379.118 246.274 379.118 245.618C379.118 245.228 379.031 244.885 378.858 244.59C378.685 244.294 378.393 244.063 377.982 243.897C377.578 243.731 377.019 243.648 376.305 243.648H374.227ZM395.003 250.541L393.856 246.775H388.089L386.942 250.541H383.328L388.911 234.656H393.012L398.617 250.541H395.003ZM393.055 243.962L391.908 240.283C391.836 240.038 391.739 239.724 391.616 239.342C391.501 238.952 391.382 238.559 391.259 238.162C391.144 237.758 391.05 237.408 390.978 237.113C390.906 237.408 390.805 237.776 390.675 238.216C390.552 238.649 390.433 239.06 390.318 239.45C390.202 239.839 390.119 240.117 390.069 240.283L388.933 243.962H393.055ZM413.139 250.541H409.795V243.713H403.53V250.541H400.176V234.721H403.53V240.921H409.795V234.721H413.139V250.541ZM416.699 234.721H419.718V242.361C419.718 242.736 419.711 243.151 419.697 243.605C419.69 244.059 419.675 244.507 419.653 244.947C419.639 245.38 419.625 245.758 419.61 246.083C419.596 246.408 419.581 246.624 419.567 246.732H419.632L426.936 234.721H430.95V250.541H427.964V242.945C427.964 242.541 427.971 242.101 427.985 241.625C428 241.149 428.018 240.687 428.04 240.24C428.068 239.792 428.094 239.407 428.115 239.082C428.137 238.75 428.151 238.53 428.159 238.422H428.072L420.736 250.541H416.699V234.721ZM443.611 250.541H434.5V234.721H443.611V237.47H437.854V240.943H443.21V243.692H437.854V247.771H443.611V250.541Z" fill="black"/>
</svg>
