<svg width="475" height="475" viewBox="0 0 475 475" fill="none" xmlns="http://www.w3.org/2000/svg">
<path d="M380.387 238.23H373.622V231.63H370.157V248.46H373.622V241.2H380.387V248.46H383.852V231.465H380.387V238.23ZM361.412 231.63H357.452L350.687 248.625H354.482L355.802 244.83H363.062L364.382 248.625H368.177L361.412 231.63V231.63ZM356.792 241.695L359.267 234.93L361.742 241.695H356.792ZM402.002 248.46L394.577 239.22L401.672 231.465H397.382L391.277 238.725V231.465H387.812V248.46H391.277V239.88L397.712 248.46H402.002ZM348.047 239.55C347.057 238.56 345.737 238.065 344.417 237.9H340.787V234.6H348.212V231.63H337.322V248.46H344.417C345.077 248.46 345.737 248.295 346.397 248.13C347.057 247.965 347.552 247.47 348.047 246.975C348.542 246.48 348.872 245.985 349.202 245.325C349.532 244.665 349.532 244.005 349.532 243.345C349.532 241.86 348.872 240.54 348.047 239.55V239.55ZM345.077 244.995C344.582 245.49 344.087 245.655 343.427 245.82H340.622V240.87H343.427C343.757 240.87 344.087 240.87 344.417 241.035C344.747 241.2 345.077 241.365 345.242 241.53C345.407 241.695 345.737 242.025 345.737 242.355C345.902 242.685 345.902 243.015 345.902 243.345C345.902 243.84 345.572 244.5 345.077 244.995V244.995ZM141.797 251.265H133.712L137.342 244.83L128.267 228.825H136.517L141.302 238.23L145.922 228.825H153.842L141.797 251.265ZM242.777 251.265H232.712C227.267 251.265 222.812 246.645 222.812 240.375C222.812 233.115 227.267 228.825 232.712 228.825H242.777V234.435H236.342C232.547 234.435 230.237 235.59 230.237 240.21C230.237 244.83 232.382 245.82 236.342 245.82H242.777V251.265V251.265ZM269.012 251.265H261.587V235.425L253.172 251.265H244.262V228.825H251.687V244.17L260.102 228.825H269.012V251.265ZM215.222 228.825H207.137L199.217 247.47L191.297 228.825H183.047L173.477 251.43H181.232L182.882 246.645H191.132L192.947 251.43H205.157L211.097 235.095L216.872 251.43H224.627L215.222 228.825V228.825ZM185.027 241.53L187.502 235.095L189.812 241.53H185.027ZM169.682 228.825H154.502V251.43H161.762V244.83H169.682C177.272 244.83 177.272 238.065 177.272 236.58C177.272 235.095 177.272 228.825 169.682 228.825V228.825ZM167.207 239.22H161.927V234.435H167.207C168.032 234.435 170.177 234.435 170.177 236.745C170.177 239.055 168.032 239.22 167.207 239.22ZM285.347 237.24H277.922V234.27H291.947V228.66H270.497V251.265H285.347C293.102 251.265 293.102 246.645 293.102 244.17C293.102 241.695 293.102 237.405 285.347 237.24ZM284.027 246.15H277.757V242.52H284.027C285.677 242.52 285.677 243.675 285.677 244.17C285.677 244.665 285.677 246.15 284.027 246.15ZM95.597 217.44C96.092 217.44 96.752 217.44 97.247 217.605L97.082 202.26H98.897C98.732 207.54 99.062 212.655 99.557 217.935C103.847 218.925 107.807 221.07 110.942 224.37C114.077 227.67 116.057 231.63 116.882 236.085C117.707 240.54 117.047 244.995 115.232 249.12C113.417 253.245 110.447 256.545 106.652 259.02C106.487 258.855 106.322 258.525 105.992 258.195C99.227 249.615 97.577 236.91 97.082 225.855C98.072 226.02 98.897 226.185 99.887 226.35C101.372 235.755 105.497 244.665 112.097 251.595C114.407 248.79 115.727 244.995 115.397 241.365C115.232 237.57 113.582 234.105 111.107 231.465C108.137 228.33 104.507 226.02 100.382 225.03C98.402 224.535 96.422 224.205 94.442 224.205C92.462 224.205 90.317 224.535 88.337 225.03C79.757 227.175 73.322 233.94 73.322 242.025C73.322 245.49 74.477 248.79 76.622 251.595C83.222 244.665 87.347 235.755 88.832 226.35C89.822 226.185 90.647 226.185 91.802 225.855C91.307 237.075 89.657 249.615 82.892 258.03C82.727 258.36 82.397 258.69 82.232 258.855C78.437 256.38 75.632 252.915 73.817 248.79C72.002 244.665 71.507 240.21 72.332 235.755C73.157 231.3 75.302 227.34 78.272 224.205C81.242 221.07 85.367 218.76 89.657 217.935C90.317 206.55 90.152 202.26 90.152 202.26H91.967L91.802 217.605C92.297 217.44 92.792 217.275 93.287 217.44V195H95.267C95.432 195 95.432 217.44 95.597 217.44Z" fill="black"/>
<path d="M95.5997 225.689C95.7647 236.414 96.5897 249.614 100.055 258.689C100.385 259.679 100.88 260.669 101.54 261.659C99.2297 262.319 96.9197 262.649 94.6097 262.814C92.2997 262.814 89.9897 262.484 87.6797 261.659C88.3397 260.504 88.8347 259.514 89.3297 258.359C92.4647 249.449 93.2897 236.249 93.4547 225.689H95.5997ZM314.225 223.049H315.71V257.039H314.225V223.049Z" fill="black"/>
</svg>
