<svg width="475" height="475" viewBox="0 0 475 475" fill="none" xmlns="http://www.w3.org/2000/svg">
<path d="M99.2734 250.192V225.513H104.822V250.192H99.2734ZM122.766 250.545C118.634 250.545 115.067 249.228 112.065 246.596L115.344 242.753C117.818 244.751 120.328 245.75 122.874 245.75C124.003 245.75 124.892 245.538 125.54 245.115C126.189 244.692 126.513 244.104 126.513 243.352C126.513 242.647 126.177 242.083 125.504 241.66C124.832 241.213 123.474 240.732 121.433 240.215C119.992 239.862 118.827 239.521 117.938 239.192C117.049 238.84 116.196 238.381 115.38 237.817C114.587 237.253 113.998 236.548 113.614 235.702C113.254 234.832 113.074 233.798 113.074 232.599C113.074 230.366 113.89 228.568 115.524 227.205C117.181 225.842 119.307 225.16 121.901 225.16C125.48 225.16 128.603 226.206 131.269 228.298L128.387 232.388C126.009 230.766 123.823 229.955 121.829 229.955C120.796 229.955 119.992 230.167 119.415 230.59C118.863 230.989 118.586 231.518 118.586 232.176C118.586 232.975 118.935 233.575 119.631 233.974C120.328 234.374 121.793 234.856 124.027 235.42C126.765 236.125 128.783 237.03 130.08 238.134C131.377 239.239 132.026 240.826 132.026 242.894C132.026 245.291 131.173 247.172 129.468 248.535C127.786 249.875 125.552 250.545 122.766 250.545ZM139.51 250.192V225.513H145.059V245.256H157.634V250.192H139.51ZM162.325 250.192L173.135 225.337H178.251L189.06 250.192H183.259L180.953 244.657H170.288L167.982 250.192H162.325ZM172.27 239.862H178.972L175.621 231.859L172.27 239.862ZM195.622 250.192V225.513H200.738L212.556 240.708V225.513H218.033V250.192H213.313L201.098 234.503V250.192H195.622ZM226.757 250.192V225.513H236.593C240.532 225.513 243.751 226.688 246.249 229.038C248.747 231.365 249.996 234.303 249.996 237.852C249.996 241.378 248.735 244.316 246.213 246.666C243.715 249.017 240.508 250.192 236.593 250.192H226.757ZM232.305 245.291H236.593C238.875 245.291 240.713 244.61 242.105 243.247C243.499 241.86 244.196 240.062 244.196 237.852C244.196 235.667 243.486 233.88 242.069 232.494C240.677 231.107 238.851 230.413 236.593 230.413H232.305V245.291ZM280.052 250.545C275.921 250.545 272.354 249.228 269.351 246.596L272.63 242.753C275.104 244.751 277.614 245.75 280.16 245.75C281.29 245.75 282.178 245.538 282.826 245.115C283.476 244.692 283.8 244.104 283.8 243.352C283.8 242.647 283.463 242.083 282.79 241.66C282.118 241.213 280.761 240.732 278.719 240.215C277.278 239.862 276.113 239.521 275.224 239.192C274.335 238.84 273.483 238.381 272.666 237.817C271.873 237.253 271.285 236.548 270.901 235.702C270.54 234.832 270.36 233.798 270.36 232.599C270.36 230.366 271.176 228.568 272.81 227.205C274.468 225.842 276.593 225.16 279.188 225.16C282.766 225.16 285.889 226.206 288.556 228.298L285.673 232.388C283.295 230.766 281.109 229.955 279.116 229.955C278.083 229.955 277.278 230.167 276.701 230.59C276.149 230.989 275.873 231.518 275.873 232.176C275.873 232.975 276.221 233.575 276.917 233.974C277.614 234.374 279.08 234.856 281.313 235.42C284.052 236.125 286.069 237.03 287.366 238.134C288.664 239.239 289.312 240.826 289.312 242.894C289.312 245.291 288.459 247.172 286.754 248.535C285.073 249.875 282.839 250.545 280.052 250.545ZM318.631 246.913C316.085 249.381 312.89 250.615 309.047 250.615C305.204 250.615 302.009 249.381 299.463 246.913C296.94 244.445 295.68 241.425 295.68 237.852C295.68 234.303 296.953 231.295 299.499 228.827C302.069 226.336 305.276 225.09 309.119 225.09C312.962 225.09 316.145 226.324 318.667 228.792C321.213 231.26 322.486 234.28 322.486 237.852C322.486 241.402 321.201 244.422 318.631 246.913ZM303.643 243.352C305.083 244.857 306.909 245.609 309.119 245.609C311.329 245.609 313.142 244.868 314.559 243.388C315.977 241.883 316.686 240.038 316.686 237.852C316.686 235.69 315.965 233.857 314.523 232.353C313.082 230.848 311.257 230.096 309.047 230.096C306.837 230.096 305.024 230.848 303.607 232.353C302.189 233.833 301.48 235.667 301.48 237.852C301.48 240.015 302.201 241.848 303.643 243.352ZM340.598 250.58C337.164 250.58 334.485 249.651 332.563 247.795C330.642 245.914 329.681 243.188 329.681 239.615V225.513H335.23V239.474C335.23 241.449 335.698 242.965 336.635 244.022C337.596 245.056 338.941 245.573 340.67 245.573C342.4 245.573 343.733 245.068 344.67 244.057C345.631 243.047 346.111 241.578 346.111 239.651V225.513H351.66V239.439C351.66 243.106 350.675 245.879 348.705 247.759C346.76 249.64 344.057 250.58 340.598 250.58ZM359.98 250.192V225.513H365.529V245.256H378.104V250.192H359.98Z" fill="black"/>
<path d="M199.383 273.86C198.137 273.86 197.176 273.32 196.5 272.24L197.261 271.601C197.563 272.045 197.875 272.375 198.195 272.593C198.524 272.802 198.925 272.906 199.396 272.906C199.938 272.906 200.379 272.719 200.717 272.345C201.055 271.962 201.224 271.418 201.224 270.713V264.589H202.292V270.7C202.292 271.744 202.007 272.545 201.438 273.102C200.904 273.607 200.219 273.86 199.383 273.86ZM207.453 273.729V264.589H214.205V265.529H208.507V268.65H213.605V269.59H208.507V272.789H214.272V273.729H207.453ZM221.677 273.794L218.341 264.589H219.489L222.158 272.201L224.72 264.562H225.587L228.149 272.201L230.818 264.589H231.926L228.59 273.794H227.696L225.133 266.378L222.558 273.794H221.677ZM236.509 273.729V264.589H243.261V265.529H237.563V268.65H242.661V269.59H237.563V272.789H243.328V273.729H236.509ZM248.117 273.729V264.589H249.172V272.776H254.43V273.729H248.117ZM259.049 273.729V264.589H263.065C264.213 264.589 265.098 264.893 265.721 265.503C266.201 265.973 266.442 266.582 266.442 267.331C266.442 268.062 266.21 268.654 265.747 269.107C265.285 269.559 264.671 269.855 263.906 269.995L266.775 273.729H265.481L262.772 270.177H260.103V273.729H259.049ZM260.103 269.25H262.972C263.684 269.25 264.262 269.08 264.707 268.741C265.152 268.401 265.374 267.936 265.374 267.344C265.374 266.778 265.16 266.338 264.733 266.025C264.315 265.703 263.733 265.542 262.985 265.542H260.103V269.25ZM273.945 273.729V270.112L270.062 264.589H271.343L274.492 269.159L277.668 264.589H278.896L275.013 270.099V273.729H273.945Z" fill="black"/>
</svg>
