<svg width="475" height="475" viewBox="0 0 475 475" fill="none" xmlns="http://www.w3.org/2000/svg">
<g clip-path="url(#clip0_2760_18773)">
<path d="M141.02 215.557V237.595C141.02 238.626 140.227 239.34 139.276 239.34H136.66C136.501 239.34 136.422 239.498 136.422 239.577V258.049C137.056 258.049 137.69 258.207 138.404 258.207C150.216 258.207 159.808 248.615 159.808 236.803C159.808 225.942 151.643 216.825 141.02 215.557ZM140.544 248.536C139.038 248.536 137.928 247.267 137.928 245.919C137.928 244.413 139.197 243.303 140.544 243.303C142.05 243.303 143.16 244.572 143.16 245.919C143.319 247.346 142.05 248.536 140.544 248.536ZM146.807 248.536C145.301 248.536 144.191 247.267 144.191 245.919C144.191 244.413 145.459 243.303 146.807 243.303C148.313 243.303 149.423 244.572 149.423 245.919C149.423 247.267 148.393 248.536 146.807 248.536ZM153.149 248.536C151.643 248.536 150.533 247.267 150.533 245.919C150.533 244.413 151.801 243.303 153.149 243.303C154.655 243.303 155.765 244.572 155.765 245.919C155.765 247.267 154.655 248.536 153.149 248.536Z" fill="black"/>
<path d="M138.405 215.477C126.592 215.477 117 225.069 117 236.881C117 247.266 124.214 255.749 133.886 257.731V238.467C133.886 237.595 134.679 236.881 135.471 236.723H138.088C138.246 236.723 138.325 236.564 138.325 236.485L138.405 215.477ZM134.282 233.076C132.776 233.076 131.666 231.807 131.666 230.46C131.666 228.954 132.935 227.844 134.282 227.844C135.788 227.844 136.898 229.112 136.898 230.46C136.898 231.807 135.709 233.076 134.282 233.076Z" fill="black"/>
<path d="M352.688 227.131V235.217H341.906V227.131H336.436V248.535H341.906V239.894H352.688V248.535H357.999V227.131H352.688ZM263.581 229.588C262.709 227.686 260.965 226.655 259.221 226.655C257.477 226.655 255.653 227.686 254.861 229.588L246.219 248.615H251.927L253.83 244.096H264.929L266.831 248.615H272.539L263.581 229.588V229.588ZM255.336 239.815L258.587 231.966C258.745 231.729 258.824 231.729 258.983 231.729C259.141 231.729 259.379 231.729 259.379 231.966L262.63 239.815H255.336ZM199.843 223.325C197.306 223.325 195.72 224.673 194.531 227.368L187.634 243.462L180.658 227.289C179.548 224.673 177.883 223.246 175.346 223.246C172.968 223.246 170.59 224.832 170.59 228.558V248.456H175.901V229.271L182.957 245.206C183.829 247.505 185.494 248.852 187.634 248.852C189.933 248.852 191.44 247.505 192.312 245.206L199.367 229.271V248.694H204.679V228.795C204.599 225.069 202.221 223.325 199.843 223.325V223.325ZM214.033 244.016C213.795 244.016 213.478 243.779 213.478 243.462V239.656H226.797V235.296H213.478V232.046C213.478 231.808 213.716 231.491 214.033 231.491H227.272V226.972H211.417C209.515 226.972 208.246 228.478 208.246 230.143V245.126C208.246 246.712 209.594 248.297 211.417 248.297H227.272V243.779H214.033V244.016V244.016ZM236.231 248.535V232.204C236.231 231.966 236.468 231.649 236.786 231.649H250.025V227.131H234.169C232.267 227.131 230.998 228.637 230.998 230.302V248.456L236.231 248.535V248.535ZM332.948 237.912C332.948 230.46 329.697 226.972 321.611 226.972H319.709C311.622 226.972 308.372 230.54 308.372 237.912C308.372 245.206 311.622 248.852 319.709 248.852H321.453C329.697 248.694 332.948 245.206 332.948 237.912V237.912ZM321.453 244.334H319.709C315.348 244.334 313.525 242.352 313.525 237.912C313.525 233.631 315.031 231.491 319.709 231.491H321.453C325.971 231.491 327.636 233.631 327.636 237.912C327.636 242.272 325.971 244.334 321.453 244.334ZM293.547 223.801H282.924C274.997 223.801 271.826 227.844 271.826 234.741C271.826 235.851 271.984 236.882 272.064 237.754C272.936 242.669 275.869 245.681 283.241 245.681H285.62V248.456H290.931V245.681H293.23C300.682 245.681 303.615 242.669 304.408 237.754C304.567 236.882 304.646 235.851 304.646 234.741C304.567 227.844 301.316 223.801 293.547 223.801V223.801ZM285.461 241.242H283.083C279.436 241.242 278.168 239.894 277.375 237.674C277.137 236.882 277.137 235.772 277.137 234.662C277.137 230.143 279.278 228.241 282.29 228.241H285.541V241.242H285.461ZM299.097 237.912C298.304 240.053 296.956 241.48 293.389 241.48H291.011V228.399H294.261C297.273 228.399 299.414 230.302 299.414 234.82C299.335 236.01 299.335 236.961 299.097 237.912V237.912Z" fill="black"/>
</g>
<defs>
<clipPath id="clip0_2760_18773">
<rect width="241" height="43.602" fill="white" transform="translate(117 215)"/>
</clipPath>
</defs>
</svg>
