<svg width="475" height="475" viewBox="0 0 475 475" fill="none" xmlns="http://www.w3.org/2000/svg">
<g clip-path="url(#clip0_2760_18765)">
<path fill-rule="evenodd" clip-rule="evenodd" d="M155.652 214.029C154.882 213.971 152.741 214.669 151.6 217.635L148.004 225.573H166.412L166.554 261.98H185.476L185.333 225.573H199.717V214.029H155.652ZM229.055 214.029V225.69H223.09V232.058H229.055V242.381H223.004V251.541H229.055V261.922H204.169V218.682C204.54 215.687 206.537 214 209.049 214L229.055 214.029ZM229.055 225.69V214.029H254.34C251.229 220.746 250.544 225.457 245.95 225.69H229.055ZM254.882 241.218V252.995C253.227 257.909 248.661 261.922 236.161 261.922H229.055V251.541H230.111C233.478 251.512 234.534 249.767 235.162 247.179C235.162 244.445 233.592 242.381 229.797 242.381H229.055V232.058H237.759C248.49 232.058 253.17 236.013 254.882 241.218ZM254.882 259.596L253.998 261.747H254.882V259.596ZM254.882 252.995V241.218C255.51 243.137 255.767 245.231 255.767 247.353C255.71 249.243 255.482 251.192 254.882 252.995ZM314.729 214H305.91H305.796C303.37 214.029 301.715 215.221 300.916 217.606L294.58 235.635V214H285.705H276.886H276.772C274.346 214.029 272.719 215.221 271.892 217.606L254.882 259.596V261.747H264.643C267.325 261.747 269.323 260.73 270.322 258.316L279.34 235.896V261.893H293.81C296.492 261.893 298.49 260.73 299.489 258.316L307.68 235.838V261.718H326.373V214H314.729Z" fill="black"/>
</g>
<defs>
<clipPath id="clip0_2760_18765">
<rect width="178.725" height="47.98" fill="white" transform="translate(148 214)"/>
</clipPath>
</defs>
</svg>
