<svg width="67" height="24" viewBox="0 0 67 24" fill="none" xmlns="http://www.w3.org/2000/svg"><g clip-path="url(#clip0_7202_31317)"><path fill-rule="evenodd" clip-rule="evenodd" d="M66.133 0c-.355.744-.659 1.4-.98 2.047C63.675 5.02 62.21 8 60.701 10.957c-.371.725-.383 1.334-.008 2.07 1.706 3.351 3.364 6.727 5.035 10.094.127.257.236.524.396.879H0V0h66.133z" fill="#2A2A2A"/><path d="M12.348 18.61l-3.023-4.198h-.59v4.198H5.398V5.4h5.217c1.438 0 2.593.355 3.465 1.064.885.709 1.346 1.803 1.383 3.284 0 2.338-.854 3.78-2.562 4.328l3.557 4.534h-4.11zm-3.613-7.071h1.935c.652 0 1.112-.25 1.383-.747.27-.51.27-1.013 0-1.51-.27-.51-.732-.766-1.383-.766H8.735v3.023zm18.15-2.109c-.013.36-.136.752-.369 1.175a2.245 2.245 0 01-.977.97c.799.41 1.333.958 1.604 1.642.27.684.35 1.343.24 1.978-.357 2.276-1.905 3.414-4.646 3.414H17.41V5.399h5.235c1.278 0 2.31.368 3.097 1.101.799.722 1.18 1.698 1.143 2.93zm-6.157 1.138h1.917c.504 0 .86-.193 1.07-.579.22-.398.227-.79.018-1.175-.21-.398-.572-.597-1.088-.597h-1.917v2.35zm0 5.112h1.917c.627 0 1.063-.224 1.309-.672.258-.46.258-.914 0-1.362-.258-.448-.695-.671-1.309-.671h-1.917v2.705zm7.702 1.175c0-.51.178-.945.534-1.306.357-.36.787-.54 1.29-.54.504 0 .934.18 1.29.54.37.361.554.796.554 1.306 0 .523-.184.97-.553 1.344-.357.36-.787.54-1.29.54-.504 0-.934-.18-1.29-.54a1.876 1.876 0 01-.535-1.344zm12.207 1.755l-3.023-4.199h-.59v4.198h-3.337V5.4h5.217c1.438 0 2.593.355 3.465 1.064.885.71 1.346 1.804 1.383 3.284 0 2.338-.854 3.781-2.562 4.329l3.557 4.533h-4.11zm-3.613-7.072h1.935c.652 0 1.112-.249 1.383-.746.27-.51.27-1.014 0-1.511-.27-.51-.731-.765-1.383-.765h-1.935v3.022zM48.961 5.4v8.787c0 .399.13.74.388 1.027.258.273.565.441.921.503a3.26 3.26 0 001.106 0c.369-.062.682-.23.94-.503a1.48 1.48 0 00.387-1.027V5.4h3.337v8.787c0 .672-.123 1.288-.37 1.848a3.77 3.77 0 01-.958 1.361 6.256 6.256 0 01-1.4.933 4.67 4.67 0 01-1.641.448c-.565.05-1.137.05-1.714 0a4.841 4.841 0 01-1.66-.448 6.449 6.449 0 01-1.382-.933 3.887 3.887 0 01-.94-1.361 4.753 4.753 0 01-.35-1.848V5.4h3.336z" fill="#fff"/></g><defs><clipPath id="clip0_7202_31317"><path fill="#fff" d="M0 0h66.133v24H0z"/></clipPath></defs></svg>