<svg width="116" height="20" viewBox="0 0 116 20" fill="none" xmlns="http://www.w3.org/2000/svg"><g clip-path="url(#clip0_7202_31342)" fill="#2A2A2A"><path d="M16.85 0H3.142A3.165 3.165 0 00-.004 3.146v13.708A3.165 3.165 0 003.142 20H16.85a3.165 3.165 0 003.146-3.146V3.146A3.152 3.152 0 0016.85 0zm-1.884 4.67H6.73v4.208h8.236V10.5H6.73v4.81h8.236v1.643h-9.94V3.046h9.94V4.67zm71.401 4.268c.12-.44.28-.842.521-1.182.24-.341.501-.642.802-.882.3-.24.641-.42.982-.561.36-.12.701-.2 1.062-.2.501 0 .982.12 1.443.36.44.24.842.561 1.182.982.341.421.562.922.722 1.483h-6.714zm12.004 4.188h-2.004v2.065h2.004v-2.065zm6.874-8.517a4.21 4.21 0 00-1.222.06c-.421.08-.822.241-1.183.461-.38.22-.701.522-.962.882V4.85h-1.643v10.32h1.704V9.2c0-.521.1-.962.26-1.343.18-.38.421-.681.722-.922.3-.24.661-.42 1.062-.521.4-.1.821-.14 1.262-.12V4.609zm10.181.24h-1.704v6.334c0 .52-.12.982-.36 1.382a2.557 2.557 0 01-.962.942c-.401.24-.862.361-1.383.361-.541 0-1.022-.12-1.383-.34a2.183 2.183 0 01-.862-.943c-.2-.4-.3-.881-.3-1.443V4.85h-1.684v6.212c0 .642.101 1.223.261 1.764.18.541.441.982.781 1.383.341.38.762.681 1.243.901.501.22 1.062.321 1.683.321.642 0 1.203-.12 1.724-.36a3.98 3.98 0 001.302-1.003v1.123h1.644V4.85zM92.9 11.965c-.28.601-.68 1.082-1.202 1.403-.521.32-1.142.501-1.864.501-.42 0-.841-.08-1.242-.22a4.102 4.102 0 01-1.102-.662 4.034 4.034 0 01-.822-1.082c-.22-.42-.36-.902-.42-1.443h8.676c0-.741-.1-1.403-.28-2.024a5.091 5.091 0 00-.782-1.623A5.114 5.114 0 0092.7 5.61a5.736 5.736 0 00-1.423-.761 5.113 5.113 0 00-1.563-.26c-.721 0-1.403.14-2.024.42a5.318 5.318 0 00-1.643 1.163 5.813 5.813 0 00-1.123 1.723c-.26.661-.4 1.363-.4 2.104 0 .762.14 1.463.42 2.124a5.23 5.23 0 001.123 1.724 5.44 5.44 0 001.683 1.142c.641.28 1.343.421 2.084.421a5.72 5.72 0 002.165-.4 4.625 4.625 0 001.663-1.163c.46-.521.802-1.142 1.062-1.884H92.9zM84.343 4.85H82.54l-2.846 8.216-2.866-8.216h-1.803l3.747 10.32h1.824l3.747-10.32zm-11.022 0h-1.703v10.32h1.703V4.85zm-3.347 8.757c-.32.02-.62 0-.901-.06a2.02 2.02 0 01-.762-.34c-.22-.16-.4-.401-.521-.702-.12-.3-.2-.661-.2-1.122v-4.91h2.344V4.85H67.59V2.646h-1.684V4.85h-1.403v1.623h1.403v4.91c0 .661.1 1.243.3 1.744.201.5.482.901.843 1.242a3.2 3.2 0 001.282.701c.501.14 1.042.18 1.643.1v-1.563zM63 4.85h-1.703v6.333c0 .52-.12.982-.36 1.382a2.552 2.552 0 01-.963.942c-.4.22-.861.361-1.382.361-.541 0-1.023-.12-1.383-.34a2.18 2.18 0 01-.862-.943c-.2-.4-.3-.881-.3-1.443V4.85h-1.684v6.212c0 .642.1 1.223.26 1.764.181.52.442.982.782 1.383.34.38.762.681 1.243.901.5.22 1.062.321 1.683.321.641 0 1.202-.12 1.723-.36a3.985 3.985 0 001.303-1.003v1.123H63V4.85zm-10.34 7.114h-1.824c-.18.38-.42.701-.721.982a2.9 2.9 0 01-1.003.621c-.38.14-.801.22-1.262.22-.481 0-.922-.1-1.343-.3-.42-.2-.781-.46-1.102-.801a3.68 3.68 0 01-.741-1.203 3.96 3.96 0 01-.28-1.463c0-.52.1-1.022.28-1.483.18-.46.42-.861.741-1.222a3.39 3.39 0 011.102-.822c.421-.2.862-.3 1.343-.3.44 0 .862.08 1.242.22.381.14.722.36 1.002.621.301.28.542.601.742.982h1.824a5.287 5.287 0 00-1.042-1.823 4.84 4.84 0 00-1.644-1.203c-.641-.28-1.342-.42-2.124-.42a4.79 4.79 0 00-2.004.42 5.318 5.318 0 00-1.643 1.163 5.813 5.813 0 00-1.123 1.723c-.26.661-.4 1.363-.4 2.104 0 .762.14 1.463.4 2.104a5.235 5.235 0 001.123 1.724 5.224 5.224 0 001.643 1.162c.621.28 1.303.421 2.004.421.782 0 1.483-.14 2.124-.42a4.655 4.655 0 001.644-1.203c.46-.481.801-1.103 1.042-1.804zM32.78 8.938c.12-.44.28-.842.52-1.182.241-.341.502-.642.802-.882.301-.24.642-.42.982-.561.361-.12.702-.2 1.063-.2.5 0 .982.12 1.442.36.441.24.842.561 1.183.982.32.421.56.922.721 1.483H32.78zm6.533 3.026c-.28.601-.681 1.082-1.203 1.403-.52.32-1.142.501-1.863.501-.421 0-.842-.08-1.243-.22-.4-.16-.761-.381-1.102-.662-.34-.3-.601-.661-.822-1.082-.22-.42-.36-.902-.42-1.443h8.677c0-.741-.1-1.403-.28-2.024a5.091 5.091 0 00-.782-1.623 5.114 5.114 0 00-1.163-1.203 5.739 5.739 0 00-1.422-.761 5.112 5.112 0 00-1.563-.26c-.722 0-1.403.14-2.025.42a5.32 5.32 0 00-1.643 1.163 5.951 5.951 0 00-1.122 1.723c-.26.661-.4 1.363-.4 2.104 0 .762.14 1.463.42 2.124a5.23 5.23 0 001.122 1.724 5.44 5.44 0 001.684 1.142c.64.28 1.342.421 2.084.421.801 0 1.523-.14 2.164-.4a4.624 4.624 0 001.663-1.163c.461-.521.802-1.142 1.063-1.884h-1.824zm-10.481 3.207h2.084L27.209 9.84l3.466-4.99h-2.084l-2.405 3.687-2.404-3.687h-2.084l3.446 4.99-3.687 5.33h2.084l2.645-4.027 2.646 4.028zM73.328 1.263h-1.703v2.024h1.703V1.263z"/></g><defs><clipPath id="clip0_7202_31342"><path fill="#fff" d="M0 0h115.431v20H0z"/></clipPath></defs></svg>