<svg width="82" height="55" viewBox="0 0 82 55" fill="none" xmlns="http://www.w3.org/2000/svg"><path fill-rule="evenodd" clip-rule="evenodd" d="M63.557 18.133c9.974 0 18.043 8.16 18.043 18.134 0 9.973-8.16 18.133-18.134 18.133-9.973 0-18.133-8.16-18.133-18.133C45.333 16.229 61.563 0 81.6 0c0 0-11.877 4.442-18.043 18.133zm-27.29 18.134c0 9.973-8.16 18.133-18.134 18.133C8.16 54.4 0 46.24 0 36.267 0 16.229 16.23 0 36.267 0c0 0-11.878 4.443-18.043 18.133 9.974 0 18.043 8.16 18.043 18.134z" fill="#000"/></svg>