<svg width="209" height="38" viewBox="0 0 209 38" fill="none" xmlns="http://www.w3.org/2000/svg">
<g clip-path="url(#clip0_3102_31930)">
<path d="M20.7588 0.480469V19.5266C20.7588 20.4173 20.0737 21.0339 19.2516 21.0339H16.9907C16.8537 21.0339 16.7852 21.1709 16.7852 21.2394V37.2026C17.3332 37.2026 17.8813 37.3396 18.4979 37.3396C28.7061 37.3396 36.996 29.0497 36.996 18.8415C36.996 9.45546 29.9393 1.57665 20.7588 0.480469ZM20.3478 28.9812C19.046 28.9812 18.0869 27.885 18.0869 26.7203C18.0869 25.4186 19.1831 24.4595 20.3478 24.4595C21.6495 24.4595 22.6086 25.5556 22.6086 26.7203C22.7457 27.9535 21.6495 28.9812 20.3478 28.9812ZM25.7602 28.9812C24.4584 28.9812 23.4993 27.885 23.4993 26.7203C23.4993 25.4186 24.5955 24.4595 25.7602 24.4595C27.0619 24.4595 28.021 25.5556 28.021 26.7203C28.021 27.885 27.1304 28.9812 25.7602 28.9812ZM31.2411 28.9812C29.9393 28.9812 28.9802 27.885 28.9802 26.7203C28.9802 25.4186 30.0764 24.4595 31.2411 24.4595C32.5428 24.4595 33.5019 25.5556 33.5019 26.7203C33.5019 27.885 32.5428 28.9812 31.2411 28.9812Z" fill="#2A2A2A"/>
<path d="M18.4981 0.412109C8.28988 0.412109 0 8.70199 0 18.9102C0 27.8852 6.23454 35.2159 14.5929 36.9287V20.2804C14.5929 19.5268 15.278 18.9102 15.9632 18.7732H18.224C18.3611 18.7732 18.4296 18.6361 18.4296 18.5676L18.4981 0.412109ZM14.9355 15.6216C13.6338 15.6216 12.6746 14.5255 12.6746 13.3608C12.6746 12.0591 13.7708 11.0999 14.9355 11.0999C16.2372 11.0999 17.1964 12.1961 17.1964 13.3608C17.1964 14.5255 16.1687 15.6216 14.9355 15.6216Z" fill="#2A2A2A"/>
<path d="M203.683 10.484V17.4722H194.366V10.484H189.638V28.9821H194.366V21.5144H203.683V28.9821H208.274V10.484H203.683ZM126.676 12.6079C125.923 10.9636 124.416 10.0729 122.908 10.0729C121.401 10.0729 119.825 10.9636 119.14 12.6079L111.672 29.0506H116.605L118.25 25.1455H127.841L129.485 29.0506H134.418L126.676 12.6079ZM119.551 21.4458L122.36 14.6632C122.497 14.4577 122.566 14.4577 122.703 14.4577C122.84 14.4577 123.045 14.4577 123.045 14.6632L125.854 21.4458H119.551ZM71.5932 7.19546C69.4009 7.19546 68.0306 8.36016 67.003 10.6895L61.0425 24.5974L55.0135 10.621C54.0543 8.36016 52.6156 7.12695 50.4232 7.12695C48.3678 7.12695 46.3125 8.49718 46.3125 11.7172V28.9136H50.9028V12.3338L57.0003 26.1046C57.7539 28.0914 59.1926 29.2561 61.0425 29.2561C63.0293 29.2561 64.331 28.0914 65.0846 26.1046L71.1821 12.3338V29.1191H75.7724V11.9228C75.7039 8.70272 73.6486 7.19546 71.5932 7.19546ZM83.8568 25.0769C83.6512 25.0769 83.3772 24.8714 83.3772 24.5974V21.3088H94.8871V17.5407H83.3772V14.7317C83.3772 14.5262 83.5827 14.2521 83.8568 14.2521H95.2982V10.347H81.5959C79.9516 10.347 78.8554 11.6487 78.8554 13.0874V26.0361C78.8554 27.4063 80.0201 28.7766 81.5959 28.7766H95.2982V24.8714H83.8568V25.0769ZM103.04 28.9821V14.8687C103.04 14.6632 103.246 14.3892 103.52 14.3892H114.961V10.484H101.259C99.6144 10.484 98.5182 11.7857 98.5182 13.2245V28.9136L103.04 28.9821ZM186.624 19.8016C186.624 13.3615 183.815 10.347 176.827 10.347H175.182C168.194 10.347 165.385 13.43 165.385 19.8016C165.385 26.1046 168.194 29.2561 175.182 29.2561H176.69C183.815 29.1191 186.624 26.1046 186.624 19.8016ZM176.69 25.351H175.182C171.414 25.351 169.839 23.6382 169.839 19.8016C169.839 16.1019 171.14 14.2521 175.182 14.2521H176.69C180.595 14.2521 182.034 16.1019 182.034 19.8016C182.034 23.5697 180.595 25.351 176.69 25.351ZM152.574 7.60653H143.393C136.542 7.60653 133.802 11.1006 133.802 17.0611C133.802 18.0203 133.939 18.9109 134.007 19.6645C134.761 23.9123 137.296 26.5157 143.667 26.5157H145.723V28.9136H150.313V26.5157H152.3C158.74 26.5157 161.275 23.9123 161.96 19.6645C162.097 18.9109 162.165 18.0203 162.165 17.0611C162.097 11.1006 159.288 7.60653 152.574 7.60653ZM145.586 22.679H143.53C140.379 22.679 139.283 21.5144 138.597 19.596C138.392 18.9109 138.392 17.9518 138.392 16.9926C138.392 13.0874 140.242 11.4432 142.845 11.4432H145.654V22.679H145.586ZM157.37 19.8016C156.684 21.6514 155.52 22.8846 152.437 22.8846H150.381V11.5802H153.19C155.794 11.5802 157.644 13.2245 157.644 17.1296C157.575 18.1573 157.575 18.9794 157.37 19.8016Z" fill="#2A2A2A"/>
</g>
<defs>
<clipPath id="clip0_3102_31930">
<rect width="208.275" height="37.6813" fill="white"/>
</clipPath>
</defs>
</svg>
