<svg width="158" height="52" viewBox="0 0 158 52" fill="none" xmlns="http://www.w3.org/2000/svg">
<g clip-path="url(#clip0_3126_27303)">
<path d="M66.4655 33.5371C68.8882 33.5371 70.0468 34.8995 70.0468 36.8906C70.0468 38.8817 68.8882 40.2441 66.4655 40.2441H63.9375V33.5371H66.4655ZM66.4655 34.7947H65.4122V38.9865H66.4655C67.8348 38.9865 68.5722 38.2529 68.5722 36.8906C68.4668 35.5282 67.8348 34.7947 66.4655 34.7947Z" fill="#2A2A2A"/>
<path d="M75.947 33.5371V34.7947H72.6817V36.2618H75.7364V37.5194H72.6817V38.9865H76.0524V40.2441H71.207V33.5371H75.947Z" fill="#2A2A2A"/>
<path d="M79.3132 40.2441L76.7852 33.5371H78.3652L80.1558 38.5673L81.9465 33.5371H83.5265L80.8932 40.2441H79.3132Z" fill="#2A2A2A"/>
<path d="M89.1072 33.5371V34.7947H85.8419V36.2618H88.8965V37.5194H85.8419V38.9865H89.2125V40.2441H84.3672V33.5371H89.1072Z" fill="#2A2A2A"/>
<path d="M91.9553 33.5371V38.9865H95.2206V40.2441H90.5859V33.5371H91.9553Z" fill="#2A2A2A"/>
<path d="M99.3274 33.4326C101.75 33.4326 102.909 35.1094 102.909 36.8909C102.909 38.6724 101.75 40.3491 99.3274 40.3491C96.9048 40.3491 95.7461 38.6724 95.7461 36.8909C95.7461 35.1094 97.0101 33.4326 99.3274 33.4326ZM99.3274 34.795C97.9581 34.795 97.2208 35.7381 97.2208 36.9957C97.2208 38.1484 97.9581 39.1964 99.3274 39.1964C100.697 39.1964 101.434 38.2532 101.434 36.9957C101.434 35.7381 100.802 34.795 99.3274 34.795Z" fill="#2A2A2A"/>
<path d="M106.704 33.5371C108.284 33.5371 109.653 34.0611 109.653 35.8426C109.653 37.6242 108.389 38.1481 106.704 38.1481H105.65V40.3488H104.176V33.5371H106.704ZM106.809 34.7947H105.65V36.7858H106.809C107.546 36.7858 108.178 36.5762 108.178 35.8426C108.178 35.0043 107.546 34.7947 106.809 34.7947Z" fill="#2A2A2A"/>
<path d="M117.975 33.5371V40.2441H116.5V36.157L114.71 38.8817H113.867L112.076 36.157V40.3488H110.602V33.5371H111.971L114.288 36.9954L116.606 33.5371H117.975Z" fill="#2A2A2A"/>
<path d="M124.299 33.5371V34.7947H121.033V36.2618H124.088V37.5194H121.033V38.9865H124.404V40.2441H119.559V33.5371H124.299Z" fill="#2A2A2A"/>
<path d="M125.77 40.2441V33.5371H127.139L130.299 37.9385C130.299 37.6242 130.299 37.3098 130.299 36.9954V33.5371H131.774V40.2441H130.404L127.244 35.8426C127.244 36.157 127.244 36.4714 127.244 36.7858V40.2441H125.77Z" fill="#2A2A2A"/>
<path d="M138.196 33.5371V34.7947H136.089V40.2441H134.614V34.7947H132.508V33.5371H138.196Z" fill="#2A2A2A"/>
<path fill-rule="evenodd" clip-rule="evenodd" d="M-0.00390625 0.00195312H29.9108C42.0241 0.00195312 51.9254 9.85277 51.9254 21.9043V51.6663H22.0108C9.89743 51.6663 -0.00390625 41.8155 -0.00390625 29.764V0.00195312ZM40.0173 22.2169C39.8067 28.2951 36.0147 31.2293 32.2227 32.0677L40.4387 40.2418H39.0693H34.0133H30.3267L20.32 30.2862V40.2418C15.3693 40.2418 11.3667 36.2596 11.3667 31.3341V28.2951V14.462V12.7853V11.3181H12.6307H12.736H14H15.264H16.528H25.9027H27.272C32.7493 11.3181 35.0667 12.3661 37.1733 14.462C38.964 16.2435 40.1227 19.073 40.0173 22.2169ZM26.956 18.2347H20.32V26.4087H24.3227H26.7453C29.484 26.4087 32.012 24.3128 31.38 21.5881C30.9587 19.597 29.0627 18.2347 26.956 18.2347Z" fill="#2A2A2A"/>
<path d="M79.4215 17.8155C79.4215 13.0997 75.7348 11.7373 72.0482 11.7373H63.9375V19.8066V23.2649V29.0286H69.7308V23.8936H71.1002L74.6815 29.0286H81.0015L76.4722 23.0553C78.1575 22.1121 79.4215 20.5402 79.4215 17.8155ZM71.8375 19.7018H69.6255V16.4531H71.8375C72.9962 16.4531 73.6282 17.0819 73.6282 18.1299C73.6282 18.9682 72.9962 19.7018 71.8375 19.7018Z" fill="#2A2A2A"/>
<path d="M90.3747 11.3193C84.16 11.3193 81 15.4064 81 20.3318C81 25.2572 84.16 29.3442 90.3747 29.3442C96.5893 29.3442 99.7493 25.2572 99.7493 20.3318C99.7493 15.4064 96.5893 11.3193 90.3747 11.3193ZM90.3747 24.314C88.1627 24.314 86.7933 22.8469 86.7933 20.4366C86.7933 18.0263 88.0573 16.5591 90.3747 16.5591C92.5867 16.5591 93.956 18.0263 93.956 20.4366C93.956 22.8469 92.5867 24.314 90.3747 24.314Z" fill="#2A2A2A"/>
<path d="M111.87 19.2826L107.025 11.7373H101.863V29.0286H107.446V21.1689L110.29 25.5704H113.345L116.189 21.1689V29.0286H121.771V11.7373H116.715L111.87 19.2826Z" fill="#2A2A2A"/>
<path d="M130.403 22.4265H136.934V18.2347H130.403V16.2435H137.882V11.7373H124.715V29.0286H137.987V24.5224H130.403V22.4265Z" fill="#2A2A2A"/>
<path d="M151.999 20.121L157.687 11.7373H151.051L148.418 16.2435L145.89 11.7373H139.148L144.836 20.121L138.938 29.0286H145.574L148.418 24.208L151.367 29.0286H158.003L151.999 20.121Z" fill="#2A2A2A"/>
</g>
<defs>
<clipPath id="clip0_3126_27303">
<rect width="158" height="51.35" fill="white"/>
</clipPath>
</defs>
</svg>
