<svg width="195" height="54" viewBox="0 0 195 54" fill="none" xmlns="http://www.w3.org/2000/svg">
<path d="M73.7312 34.8916L77.9848 21.3217V34.8916H80.8514V18.1316H76.2973L72.2517 31.4934L68.1831 18.1316H63.629V34.8916H66.4955V21.3217L70.7491 34.8916H73.7312ZM81.1432 34.8916H84.1485L85.443 31.1697H92.2395L93.5572 34.8916H96.7705L90.4826 18.1316H87.3849L81.1432 34.8916ZM88.8182 21.5298L91.3611 28.7193H86.2984L88.8182 21.5298ZM107.261 34.8916H110.566L106.729 27.286C108.833 26.5694 109.873 25.113 109.873 22.9631C109.873 19.2412 107.33 18.1316 102.406 18.1316H97.066V34.8916H100.002V27.8408H102.845C103.146 27.8408 103.446 27.8408 103.724 27.8177L107.261 34.8916ZM102.822 20.4895C105.134 20.4895 106.868 20.79 106.868 22.9862C106.868 24.9974 105.434 25.506 102.915 25.506H100.002V20.4895H102.822ZM114.305 18.1316H111.369V34.8916H114.305V29.7596L116.755 27.078L122.026 34.8916H125.494L118.697 24.9512L124.916 18.1316H121.425L114.305 26.107V18.1316ZM129.075 34.8916V31.7476H125.931V34.8916H129.075ZM140.686 34.8916L144.939 21.3217V34.8916H147.806V18.1316H143.252L139.206 31.4934L135.137 18.1316H130.583V34.8916H133.45V21.3217L137.704 34.8916H140.686ZM152.143 26.5C152.143 22.4314 154.339 20.2352 157.113 20.2352C159.887 20.2352 162.084 22.4314 162.084 26.5C162.084 30.5918 159.887 32.7879 157.113 32.7879C154.339 32.7879 152.143 30.5918 152.143 26.5ZM165.112 26.5C165.112 21.3217 162.037 17.831 157.113 17.831C152.189 17.831 149.115 21.3217 149.115 26.5C149.115 31.6552 152.189 35.1921 157.113 35.1921C162.037 35.1921 165.112 31.6552 165.112 26.5ZM177.324 26.5C177.324 31.7939 174.088 32.5336 170.875 32.5336H169.372V20.4895H170.875C174.088 20.4895 177.324 21.2062 177.324 26.5ZM166.436 18.1316V34.8916H171.013C176.307 34.8916 180.376 33.0422 180.376 26.5C180.376 19.9578 176.307 18.1316 171.013 18.1316H166.436ZM179.051 34.8916H182.057L183.351 31.1697H190.148L191.465 34.8916H194.679L188.391 18.1316H185.293L179.051 34.8916ZM186.726 21.5298L189.269 28.7193H184.207L186.726 21.5298Z" fill="#2A2A2A"/>
<circle cx="26.9307" cy="26.9307" r="25.9333" stroke="#2A2A2A" stroke-width="1.99487"/>
<path fill-rule="evenodd" clip-rule="evenodd" d="M31.582 16.9827C31.8179 15.3131 33.3626 14.1509 35.0322 14.3869C36.7018 14.6228 37.864 16.1676 37.6281 17.8371C37.55 18.3894 37.3301 18.8835 37.0107 19.2909L36.9843 19.3246L36.9609 19.3604L33.17 25.1591L31.8238 18.7201L31.8144 18.675L31.8008 18.6309C31.5652 17.8651 31.5086 17.5014 31.582 16.9827ZM29.8805 19.173L31.6304 27.5431L26.7019 35.7573L21.7732 27.5465L23.5231 19.1765C23.7851 18.318 23.9278 17.6334 23.7969 16.707C23.4068 13.9466 20.8527 12.025 18.0922 12.4152C15.3317 12.8053 13.4102 15.3593 13.8003 18.1198C13.9265 19.0126 14.2803 19.8203 14.7952 20.4894L19.6407 27.9014L16.5802 39.6966H18.6411L21.0853 30.2765L25.8469 38.209L26.7023 39.634L27.5574 38.2088L32.2253 30.4289L34.1318 39.6966H36.1684L33.7465 27.923L38.6084 20.4859C39.1233 19.8167 39.4771 19.0091 39.6033 18.1163C39.9934 15.3558 38.0719 12.8018 35.3114 12.4116C32.5509 12.0215 29.9968 13.943 29.6067 16.7035C29.4758 17.6298 29.6185 18.3145 29.8805 19.173ZM21.5798 18.7237L20.2336 25.1627L16.4427 19.364L16.4193 19.3281L16.3929 19.2944C16.0735 18.887 15.8536 18.3929 15.7755 17.8407C15.5396 16.1711 16.7018 14.6264 18.3714 14.3904C20.041 14.1544 21.5857 15.3166 21.8217 16.9862C21.895 17.5049 21.8384 17.8687 21.6028 18.6344L21.5892 18.6785L21.5798 18.7237Z" fill="#2A2A2A"/>
</svg>
