<svg width="357" height="56" viewBox="0 0 357 56" fill="none" xmlns="http://www.w3.org/2000/svg">
<path d="M57.1202 46.0098H50.5088L53.4772 40.7477L46.0562 27.6599H52.8025L56.7154 35.3507L60.4933 27.6599H66.9698L57.1202 46.0098ZM139.695 46.0098H131.465C127.012 46.0098 123.369 42.2319 123.369 37.1047C123.369 31.168 127.012 27.6599 131.465 27.6599H139.695V32.2474H134.433C131.33 32.2474 129.441 33.1918 129.441 36.9698C129.441 40.7477 131.195 41.5573 134.433 41.5573H139.695V46.0098ZM161.148 46.0098H155.077V33.0569L148.195 46.0098H140.909V27.6599H146.981V40.208L153.862 27.6599H161.148V46.0098ZM117.162 27.6599H110.551L104.075 42.9065L97.5981 27.6599H90.8517L83.026 46.1448H89.3675L90.7168 42.2319H97.4631L98.9473 46.1448H108.932L113.789 32.7871L118.512 46.1448H124.853L117.162 27.6599ZM92.4708 38.0492L94.4947 32.7871L96.3837 38.0492H92.4708ZM79.9227 27.6599H67.5095V46.1448H73.4462V40.7477H79.9227C86.1293 40.7477 86.1293 35.2157 86.1293 34.0014C86.1293 32.7871 86.1293 27.6599 79.9227 27.6599ZM77.8988 36.1602H73.5812V32.2474H77.8988C78.5734 32.2474 80.3275 32.2474 80.3275 34.1363C80.3275 36.0253 78.5734 36.1602 77.8988 36.1602ZM174.506 34.5411H168.434V32.1124H179.903V27.525H162.363V46.0098H174.506C180.848 46.0098 180.848 42.2319 180.848 40.208C180.848 38.1841 180.848 34.676 174.506 34.5411ZM173.427 41.8271H168.299V38.8587H173.427C174.776 38.8587 174.776 39.8032 174.776 40.208C174.776 40.6128 174.776 41.8271 173.427 41.8271ZM19.3408 18.35C19.7456 18.35 20.2853 18.35 20.6901 18.4849L20.5552 5.93675H22.0394C21.9044 10.2544 22.1743 14.4371 22.5791 18.7547C26.0871 19.5643 29.3254 21.3183 31.889 24.0169C34.4526 26.7154 36.0717 29.9536 36.7463 33.5966C37.4209 37.2396 36.8812 40.8826 35.3971 44.2558C33.9129 47.629 31.4842 50.3275 28.3809 52.3514C28.246 52.2164 28.111 51.9466 27.8412 51.6767C22.3092 44.6606 20.9599 34.2713 20.5552 25.2312C21.3647 25.3661 22.0394 25.5011 22.8489 25.636C24.0632 33.3268 27.4364 40.6128 32.8335 46.2797C34.7224 43.9859 35.8018 40.8826 35.532 37.9143C35.3971 34.811 34.0478 31.9775 32.0239 29.8187C29.5952 27.2551 26.6268 25.3661 23.2537 24.5566C21.6346 24.1518 20.0155 23.8819 18.3963 23.8819C16.7772 23.8819 15.0232 24.1518 13.4041 24.5566C6.38791 26.3106 1.12579 31.8426 1.12579 38.454C1.12579 41.2874 2.07027 43.9859 3.82432 46.2797C9.22136 40.6128 12.5945 33.3268 13.8089 25.636C14.6184 25.5011 15.293 25.5011 16.2375 25.2312C15.8327 34.4062 14.4835 44.6606 8.95151 51.5418C8.81659 51.8117 8.54673 52.0815 8.41181 52.2164C5.3085 50.1926 3.01476 47.3591 1.53057 43.9859C0.0463808 40.6128 -0.358398 36.9698 0.316233 33.3268C0.990864 29.6838 2.7449 26.4455 5.17358 23.8819C7.60225 21.3183 10.9754 19.4294 14.4835 18.7547C15.0232 9.44483 14.8883 5.93675 14.8883 5.93675H16.3725L16.2375 18.4849C16.6423 18.35 17.0471 18.215 17.4519 18.35V0H19.071C19.2059 0 19.2059 18.35 19.3408 18.35Z" fill="#2A2A2A"/>
<path d="M19.3436 25.0953C19.4786 33.8655 20.1532 44.6596 22.9867 52.0806C23.2565 52.8901 23.6613 53.6997 24.201 54.5093C22.312 55.049 20.4231 55.3188 18.5341 55.4537C16.6451 55.4537 14.7562 55.1839 12.8672 54.5093C13.4069 53.5648 13.8117 52.7552 14.2164 51.8107C16.78 44.5247 17.4547 33.7306 17.5896 25.0953H19.3436ZM198.121 22.9365H199.335V50.7313H198.121V22.9365Z" fill="#2A2A2A"/>
<path d="M223.528 32.4811C222.973 32.4811 222.48 32.5902 222.05 32.8084C221.626 33.0204 221.268 33.329 220.975 33.7342C220.688 34.1394 220.47 34.6288 220.32 35.2024C220.171 35.7759 220.096 36.4212 220.096 37.1381C220.096 38.1044 220.214 38.9304 220.451 39.6162C220.694 40.2957 221.068 40.8163 221.573 41.1779C222.078 41.5332 222.73 41.7109 223.528 41.7109C224.083 41.7109 224.638 41.6486 225.192 41.5239C225.753 41.3992 226.361 41.2215 227.016 40.9909V43.4222C226.411 43.6716 225.816 43.8492 225.23 43.9552C224.644 44.0674 223.986 44.1235 223.257 44.1235C221.848 44.1235 220.688 43.8337 219.778 43.2539C218.874 42.6679 218.204 41.8512 217.767 40.8038C217.331 39.7502 217.113 38.5221 217.113 37.1194C217.113 36.0845 217.253 35.1369 217.534 34.2766C217.814 33.4163 218.226 32.6713 218.768 32.0416C219.31 31.412 219.981 30.9257 220.779 30.5828C221.577 30.2399 222.493 30.0685 223.528 30.0685C224.207 30.0685 224.887 30.1558 225.566 30.3303C226.252 30.4987 226.907 30.7324 227.53 31.0317L226.595 33.3882C226.084 33.1451 225.57 32.9331 225.052 32.7523C224.535 32.5715 224.027 32.4811 223.528 32.4811ZM234.825 43.9365H231.926V32.6775H228.213V30.2649H238.537V32.6775H234.825V43.9365ZM244.625 30.2649C246.389 30.2649 247.677 30.6452 248.487 31.4057C249.298 32.1601 249.703 33.2012 249.703 34.5291C249.703 35.1276 249.613 35.7011 249.432 36.2497C249.251 36.7921 248.955 37.2753 248.543 37.6992C248.138 38.1231 247.596 38.4598 246.916 38.7091C246.237 38.9523 245.398 39.0738 244.401 39.0738H243.157V43.9365H240.258V30.2649H244.625ZM244.476 32.6401H243.157V36.6986H244.111C244.653 36.6986 245.124 36.6269 245.523 36.4835C245.922 36.3401 246.23 36.1157 246.449 35.8102C246.667 35.5047 246.776 35.112 246.776 34.632C246.776 33.9587 246.589 33.4599 246.215 33.1357C245.841 32.8053 245.261 32.6401 244.476 32.6401ZM260.27 43.9365L259.279 40.6823H254.295L253.304 43.9365H250.18L255.006 30.2088H258.55L263.394 43.9365H260.27ZM258.587 38.2509L257.596 35.0715C257.533 34.8595 257.449 34.5883 257.343 34.2579C257.244 33.9213 257.141 33.5815 257.035 33.2386C256.935 32.8895 256.854 32.5871 256.792 32.3315C256.729 32.5871 256.642 32.9051 256.53 33.2854C256.424 33.6594 256.321 34.0148 256.221 34.3514C256.121 34.6881 256.05 34.9281 256.006 35.0715L255.024 38.2509H258.587ZM275.794 43.9365H272.484L269.304 38.7652L266.125 43.9365H263.02L267.555 36.8856L263.31 30.2649H266.508L269.454 35.1837L272.343 30.2649H275.467L271.174 37.0446L275.794 43.9365ZM289.541 37.082C289.541 38.1356 289.41 39.0957 289.148 39.9622C288.886 40.8225 288.487 41.5644 287.951 42.1878C287.421 42.8112 286.748 43.2913 285.931 43.6279C285.114 43.9583 284.148 44.1235 283.032 44.1235C281.916 44.1235 280.95 43.9583 280.133 43.6279C279.317 43.2913 278.64 42.8112 278.104 42.1878C277.574 41.5644 277.178 40.8194 276.916 39.9529C276.655 39.0863 276.524 38.1231 276.524 37.0633C276.524 35.6481 276.754 34.4169 277.216 33.3695C277.683 32.3159 278.4 31.4993 279.366 30.9195C280.333 30.3397 281.561 30.0498 283.051 30.0498C284.535 30.0498 285.753 30.3397 286.707 30.9195C287.667 31.4993 288.378 32.3159 288.839 33.3695C289.307 34.4231 289.541 35.6606 289.541 37.082ZM279.563 37.082C279.563 38.0358 279.681 38.8588 279.918 39.5508C280.161 40.2365 280.538 40.7664 281.05 41.1405C281.561 41.5083 282.222 41.6922 283.032 41.6922C283.855 41.6922 284.522 41.5083 285.033 41.1405C285.545 40.7664 285.916 40.2365 286.146 39.5508C286.383 38.8588 286.502 38.0358 286.502 37.082C286.502 35.6481 286.233 34.5197 285.697 33.6968C285.161 32.8739 284.279 32.4624 283.051 32.4624C282.234 32.4624 281.567 32.6495 281.05 33.0235C280.538 33.3913 280.161 33.9213 279.918 34.6133C279.681 35.299 279.563 36.1219 279.563 37.082ZM291.991 30.2649H296.246C298.066 30.2649 299.444 30.5205 300.379 31.0317C301.314 31.5429 301.782 32.4406 301.782 33.7249C301.782 34.2423 301.698 34.7099 301.529 35.1276C301.367 35.5453 301.13 35.8881 300.819 36.1562C300.507 36.4243 300.127 36.5988 299.678 36.6799V36.7734C300.133 36.8669 300.544 37.029 300.912 37.2597C301.28 37.4841 301.573 37.8145 301.791 38.2509C302.016 38.6811 302.128 39.2546 302.128 39.9716C302.128 40.8007 301.925 41.5114 301.52 42.1037C301.115 42.6959 300.535 43.151 299.781 43.469C299.033 43.7807 298.141 43.9365 297.106 43.9365H291.991V30.2649ZM294.89 35.6793H296.573C297.415 35.6793 297.998 35.5484 298.322 35.2865C298.646 35.0185 298.808 34.6257 298.808 34.1083C298.808 33.5846 298.615 33.2106 298.228 32.9861C297.848 32.7555 297.243 32.6401 296.414 32.6401H294.89V35.6793ZM294.89 37.9797V41.5426H296.779C297.652 41.5426 298.26 41.3743 298.603 41.0376C298.945 40.701 299.117 40.249 299.117 39.6817C299.117 39.345 299.042 39.0489 298.892 38.7933C298.743 38.5377 298.49 38.3382 298.135 38.1948C297.786 38.0514 297.303 37.9797 296.685 37.9797H294.89ZM312.845 43.9365L311.854 40.6823H306.869L305.878 43.9365H302.755L307.58 30.2088H311.124L315.968 43.9365H312.845ZM311.162 38.2509L310.17 35.0715C310.108 34.8595 310.024 34.5883 309.918 34.2579C309.818 33.9213 309.715 33.5815 309.609 33.2386C309.51 32.8895 309.429 32.5871 309.366 32.3315C309.304 32.5871 309.217 32.9051 309.104 33.2854C308.998 33.6594 308.896 34.0148 308.796 34.3514C308.696 34.6881 308.624 34.9281 308.581 35.0715L307.599 38.2509H311.162ZM328.518 43.9365H325.629V38.0358H320.214V43.9365H317.315V30.2649H320.214V35.6232H325.629V30.2649H328.518V43.9365ZM331.595 30.2649H334.204V36.8669C334.204 37.1911 334.198 37.5496 334.185 37.9423C334.179 38.3351 334.167 38.7216 334.148 39.1019C334.136 39.4759 334.123 39.8032 334.111 40.0838C334.098 40.3643 334.086 40.5513 334.073 40.6449H334.129L340.441 30.2649H343.911V43.9365H341.33V37.3719C341.33 37.0228 341.336 36.6425 341.349 36.231C341.361 35.8196 341.377 35.4206 341.395 35.0341C341.42 34.6475 341.442 34.314 341.461 34.0335C341.479 33.7467 341.492 33.5566 341.498 33.463H341.423L335.083 43.9365H331.595V30.2649ZM354.852 43.9365H346.978V30.2649H354.852V32.6401H349.877V35.6419H354.506V38.0171H349.877V41.5426H354.852V43.9365Z" fill="#2A2A2A"/>
</svg>
