<svg width="161" height="42" viewBox="0 0 161 42" fill="none" xmlns="http://www.w3.org/2000/svg"><g clip-path="url(#clip0_7106_11167)" fill="#2A2A2A"><path fill-rule="evenodd" clip-rule="evenodd" d="M16.823 1.031c-.652.125-.667.216-.667 4.102v3.972h1.777v8.284H15.86v5.916h2.073v14.274l-.822-.165c-.452-.09-1.583-.448-2.513-.796-.93-.348-2.503-1.173-3.494-1.834-.992-.662-2.482-2.017-3.313-3.013-.83-.995-1.889-2.62-2.353-3.61-.464-.991-1.04-2.722-1.278-3.847-.238-1.124-.434-2.643-.434-3.376 0-.732.193-2.24.43-3.353.235-1.112.747-2.71 1.137-3.55.39-.84 1.31-2.336 2.045-3.324.734-.989 2.145-2.387 3.135-3.107l1.8-1.309.016-1.849c.01-1.017-.105-1.849-.255-1.849-.149 0-1.257.66-2.463 1.464-1.205.806-2.813 2.128-3.573 2.94-.76.811-1.896 2.269-2.523 3.239-.628.97-1.513 2.875-1.968 4.234a19.215 19.215 0 00-.976 5.163c-.084 1.508.007 3.591.206 4.734.195 1.122.697 2.905 1.114 3.963.417 1.058 1.348 2.817 2.068 3.91.72 1.091 2.09 2.689 3.044 3.549.954.86 2.469 2.006 3.365 2.546.897.54 2.604 1.32 3.793 1.733 1.234.429 3.153.82 4.468.91l2.306.157.006-3.814.006-3.814 3.521-3.698c2.517-2.643 3.572-3.571 3.699-3.254.097.244.88 2.953 1.74 6.02l1.564 5.575 1.47-1.162c.81-.639 2.168-1.925 3.02-2.857.862-.943 2.077-2.77 2.737-4.118.653-1.332 1.399-3.221 1.657-4.197.287-1.088.467-2.978.465-4.882-.003-1.857-.192-3.82-.47-4.88-.255-.977-1.019-2.907-1.697-4.29-.99-2.02-1.732-3.011-3.773-5.037-1.763-1.75-3.195-2.863-4.674-3.633-1.173-.61-3.16-1.371-4.416-1.692-1.618-.414-3.155-.572-5.273-.543-1.643.022-3.288.098-3.654.168zm7.55 3.49c1.018.24 2.75.87 3.851 1.4 1.34.647 2.693 1.65 4.097 3.037 1.152 1.139 2.52 2.822 3.04 3.74.52.92 1.21 2.705 1.533 3.968.323 1.263.586 3.173.583 4.246-.002 1.072-.206 2.808-.454 3.857-.248 1.049-.85 2.713-1.34 3.697-.49.985-1.26 2.238-1.712 2.785l-.821.993-1.131-4.1c-.622-2.254-1.194-4.266-1.272-4.47-.085-.223.106-.369.483-.369.593 0 .624-.147.624-2.958v-2.959h-2.86l-1.243-4.51c-.684-2.482-1.38-5.011-1.546-5.621l-.302-1.11h-6.49V4.076l1.555.005c.856.002 2.387.2 3.405.44zm-.691 6.013c.268 1.273.26 1.29-1.259 2.807l-1.528 1.526V9.07l1.259.092c1.225.088 1.266.125 1.528 1.371zm1.93 6.633c.012.121-.671.221-1.519.221h-1.541l1.166-1.192 1.166-1.193.353.97c.193.535.362 1.072.375 1.194zm-1.422 8.76c-1.319 1.443-2.6 2.79-2.846 2.995-.396.328-.449.019-.449-2.623v-2.994h5.692l-2.397 2.622z"/><path d="M55.173 34.12l.75-3.683c.773.136 1.432.205 1.978.205.795 0 1.455-.182 1.977-.546.546-.364 1.057-1.011 1.535-1.943L51.969 9.81h4.568l7.16 13.944L70.89 9.81h4.466l-9.75 18.82c-1.046 2.045-2.137 3.522-3.274 4.431-1.114.91-2.477 1.364-4.091 1.364-1.25 0-2.273-.102-3.069-.307zM91.482 9.81v3.819h-9.956v20.388h-4.023V9.81h13.979zm2.952 24.207V9.81h3.989v10.023h11.967V9.811h3.989v24.206h-3.989V23.618H98.423v10.399h-3.989zm29.926 0V13.629h-7.023V9.811h18.069v3.818h-7.057v20.388h-3.989zm15.151.103l.75-3.683c.772.136 1.432.205 1.977.205.796 0 1.455-.182 1.977-.546.546-.364 1.057-1.011 1.535-1.943L136.306 9.81h4.568l7.16 13.944 7.194-13.944h4.466l-9.751 18.82c-1.045 2.045-2.136 3.522-3.273 4.431-1.114.91-2.477 1.364-4.091 1.364-1.25 0-2.273-.102-3.068-.307z"/></g><defs><clipPath id="clip0_7106_11167"><path fill="#fff" transform="translate(.5 .86)" d="M0 0h160v40.28H0z"/></clipPath></defs></svg>