<svg width="286" height="59" viewBox="0 0 286 59" fill="none" xmlns="http://www.w3.org/2000/svg">
<path d="M266.559 37.3598H260.712V31.656H257.718V46.2007H260.712V39.9265H266.559V46.2007H269.553V31.5134H266.559V37.3598ZM250.16 31.656H246.738L240.892 46.3433H244.171L245.312 43.0636H251.586L252.727 46.3433H256.007L250.16 31.656ZM246.168 40.3543L248.306 34.5079L250.445 40.3543H246.168ZM285.238 46.2007L278.822 38.2154L284.953 31.5134H281.246L275.97 37.7876V31.5134H272.975V46.2007H275.97V38.7858L281.531 46.2007H285.238ZM238.61 38.5006C237.754 37.645 236.614 37.2172 235.473 37.0746H232.336V34.2227H238.753V31.656H229.341V46.2007H235.473C236.043 46.2007 236.614 46.0581 237.184 45.9155C237.754 45.7729 238.182 45.3451 238.61 44.9173C239.038 44.4896 239.323 44.0618 239.608 43.4914C239.893 42.921 239.893 42.3506 239.893 41.7803C239.893 40.4969 239.323 39.3561 238.61 38.5006ZM236.043 43.2062C235.616 43.634 235.188 43.7766 234.617 43.9192H232.193V39.6413H234.617C234.903 39.6413 235.188 39.6413 235.473 39.7839C235.758 39.9265 236.043 40.0691 236.186 40.2117C236.329 40.3543 236.614 40.6395 236.614 40.9247C236.756 41.2099 236.756 41.4951 236.756 41.7803C236.756 42.208 236.471 42.7784 236.043 43.2062ZM60.3666 48.6248H53.3794L56.5165 43.0636L48.6738 29.2319H55.8036L59.9388 37.3598L63.9315 29.2319H70.776L60.3666 48.6248ZM147.635 48.6248H138.936C134.231 48.6248 130.381 44.6322 130.381 39.2136C130.381 32.9394 134.231 29.2319 138.936 29.2319H147.635V34.0801H142.073C138.794 34.0801 136.797 35.0783 136.797 39.071C136.797 43.0636 138.651 43.9192 142.073 43.9192H147.635V48.6248ZM170.307 48.6248H163.89V34.9357L156.618 48.6248H148.918V29.2319H155.335V42.4932L162.607 29.2319H170.307V48.6248ZM123.821 29.2319H116.834L109.99 45.3451L103.145 29.2319H96.0153L87.7448 48.7674H94.4467L95.8727 44.6321H103.002L104.571 48.7674H115.123L120.256 34.6505L125.247 48.7674H131.949L123.821 29.2319ZM97.7264 40.2117L99.8653 34.6505L101.862 40.2117H97.7264ZM84.4651 29.2319H71.3464V48.7674H77.6206V43.0636H84.4651C91.0245 43.0636 91.0245 37.2172 91.0245 35.9339C91.0245 34.6505 91.0245 29.2319 84.4651 29.2319ZM82.3262 38.2154H77.7631V34.0801H82.3262C83.0392 34.0801 84.8929 34.0801 84.8929 36.0765C84.8929 38.0728 83.0392 38.2154 82.3262 38.2154ZM184.424 36.5043H178.007V33.9375H190.128V29.0893H171.59V48.6248H184.424C191.126 48.6248 191.126 44.6321 191.126 42.4932C191.126 40.3543 191.126 36.6468 184.424 36.5043ZM183.283 44.2044H177.865V41.0673H183.283C184.709 41.0673 184.709 42.0654 184.709 42.4932C184.709 42.921 184.709 44.2044 183.283 44.2044ZM20.4401 19.3929C20.8678 19.3929 21.4382 19.3929 21.866 19.5355L21.7234 6.27417H23.292C23.1494 10.8372 23.4346 15.2576 23.8623 19.8207C27.5698 20.6762 30.9921 22.53 33.7014 25.3819C36.4107 28.2338 38.1218 31.656 38.8348 35.5061C39.5478 39.3561 38.9774 43.2062 37.4088 46.7711C35.8403 50.3359 33.2736 53.1878 29.9939 55.3268C29.8513 55.1842 29.7087 54.899 29.4235 54.6138C23.5771 47.1989 22.1512 36.2191 21.7234 26.6652C22.579 26.8078 23.292 26.9504 24.1475 27.093C25.4309 35.2209 28.9957 42.921 34.6995 48.91C36.6959 46.4859 37.8366 43.2062 37.5514 40.0691C37.4088 36.7894 35.9829 33.795 33.844 31.5134C31.2773 28.8041 28.1402 26.8078 24.5753 25.9522C22.8642 25.5245 21.153 25.2393 19.4419 25.2393C17.7308 25.2393 15.877 25.5245 14.1659 25.9522C6.75097 27.806 1.18977 33.6524 1.18977 40.6395C1.18977 43.634 2.18794 46.4859 4.04167 48.91C9.74546 42.921 13.3103 35.2209 14.5937 27.093C15.4492 26.9504 16.1622 26.9504 17.1604 26.6652C16.7326 36.3617 15.3067 47.1989 9.46027 54.4712C9.31767 54.7564 9.03249 55.0416 8.88989 55.1842C5.61021 53.0452 3.1861 50.0507 1.61756 46.4859C0.0490169 42.921 -0.378767 39.071 0.334206 35.2209C1.04718 31.3708 2.90091 27.9486 5.46762 25.2393C8.03432 22.53 11.5992 20.5336 15.3067 19.8207C15.877 9.98163 15.7344 6.27417 15.7344 6.27417H17.303L17.1604 19.5355C17.5882 19.3929 18.016 19.2503 18.4437 19.3929V0H20.1549C20.2975 0 20.2975 19.3929 20.4401 19.3929Z" fill="#2A2A2A"/>
<path d="M20.4422 26.5198C20.5848 35.7885 21.2978 47.196 24.2923 55.0387C24.5775 55.8943 25.0052 56.7499 25.5756 57.6054C23.5793 58.1758 21.583 58.461 19.5866 58.6036C17.5903 58.6036 15.594 58.3184 13.5977 57.6054C14.168 56.6073 14.5958 55.7517 15.0236 54.7536C17.7329 47.0534 18.4459 35.6459 18.5885 26.5198H20.4422ZM209.38 24.2383H210.664V53.6128H209.38V24.2383Z" fill="#2A2A2A"/>
</svg>
