<svg width="241" height="30" viewBox="0 0 241 30" fill="none" xmlns="http://www.w3.org/2000/svg">
<g clip-path="url(#clip0_3102_31960)">
<path fill-rule="evenodd" clip-rule="evenodd" d="M58.0714 6.31641L52.9166 20.0728L47.7243 6.31641H41.2812V24.6586H45.1474V10.7119L50.5281 24.6586H54.7731L60.1548 10.6366V24.6586H64.2856V6.31641H58.0714Z" fill="#2A2A2A"/>
<path fill-rule="evenodd" clip-rule="evenodd" d="M91.275 6.31641H105.488V24.6586H101.09V10.1817H95.2908C95.2533 12.7596 95.178 16.2076 95.1017 18.1412C94.9511 22.954 93.5487 24.6586 89.4178 24.6586H87.4453V20.7934H88.5455C90.403 20.7934 91.0083 19.9599 91.1234 17.3454C91.2375 14.5406 91.275 8.96852 91.275 6.31641Z" fill="#2A2A2A"/>
<path fill-rule="evenodd" clip-rule="evenodd" d="M127.961 6.31641H144.674V10.1817H138.496V24.6586H134.137V10.1817H127.961V6.31641Z" fill="#2A2A2A"/>
<path fill-rule="evenodd" clip-rule="evenodd" d="M27.4241 21.4567C25.7044 21.4083 24.7075 20.4124 24.7075 19.1509C24.7075 18.1087 25.1774 17.5968 25.7991 17.2354C26.4508 16.8547 27.2972 16.7246 28.6125 16.6773C29.8773 16.6321 30.9065 16.5762 32.8671 16.5762C32.8671 19.7069 30.8979 21.2803 28.4523 21.447C28.0662 21.4739 27.8285 21.4696 27.4241 21.4567ZM29.8955 5.93652H28.3221C24.5429 5.93652 21.6779 8.23589 21.0207 11.657L25.0376 12.3023C25.5861 10.6718 26.8498 9.55978 28.4469 9.48666C28.9621 9.46299 28.8373 9.46837 29.3535 9.48666C31.7282 9.57161 32.7993 10.7084 32.7993 13.5197C28.3028 13.5197 25.2269 13.3078 22.9674 14.7973C21.1208 16.0159 20.3281 17.3656 20.3281 19.5004C20.3281 22.5881 22.7318 25.0348 26.6111 25.0348H27.1445C29.8848 25.0348 32.097 23.969 32.9981 22.6816V24.6573L37.0452 24.6594V13.6025C37.0452 9.33608 34.7611 5.93652 29.8955 5.93652Z" fill="#2A2A2A"/>
<path fill-rule="evenodd" clip-rule="evenodd" d="M117.415 9.48294C117.875 9.4582 118.04 9.4582 118.5 9.48294C120.416 9.57865 122.433 10.823 122.627 13.2976H113.19C113.41 11.0886 115.183 9.60447 117.415 9.48294ZM126.948 16.7241V15.0077C126.948 9.08717 123.231 6.02637 118.428 6.02637H117.488C112.321 6.02637 109.024 9.54961 108.853 14.5215C108.83 15.2496 108.83 15.5529 108.853 16.5466C108.975 21.4949 112.443 24.8257 117.077 24.9472C117.927 24.9709 117.816 24.9687 118.618 24.9472C122.652 24.8332 125.706 22.5059 126.607 19.4623L122.704 18.7804C121.751 20.6872 119.93 21.4185 118.476 21.4917C118.015 21.5164 117.949 21.5111 117.488 21.4917C115.209 21.3981 113.167 19.6096 113.167 17.0156V16.7241H126.948Z" fill="#2A2A2A"/>
<path fill-rule="evenodd" clip-rule="evenodd" d="M81.9103 16.8575C81.8598 19.4494 79.9733 21.2099 77.4365 21.3379C76.9501 21.3626 76.9804 21.3626 76.4944 21.3379C73.9315 21.2099 72.0708 19.4494 72.0193 16.8575C71.9945 15.7798 71.9945 15.1679 72.0193 14.0892C72.0708 11.5242 73.9315 9.76365 76.4944 9.63567C76.9804 9.60985 76.9501 9.60985 77.4365 9.63567C79.9733 9.76365 81.8598 11.5242 81.9103 14.1171C81.9351 15.1948 81.9351 15.7798 81.9103 16.8575ZM86.2325 13.8655C86.1347 9.42593 82.5544 6.02637 77.8234 6.02637H76.1081C71.3761 6.02637 67.7958 9.42593 67.699 13.8891C67.6732 15.126 67.6732 15.8487 67.699 17.0844C67.7958 21.5487 71.3761 24.9472 76.1081 24.9472H77.8234C82.5544 24.9472 86.1347 21.5487 86.2325 17.0844C86.2563 15.8487 86.2563 15.1023 86.2325 13.8655Z" fill="#2A2A2A"/>
<path fill-rule="evenodd" clip-rule="evenodd" d="M13.5162 18.1835C13.0054 19.8838 11.6374 21.0507 9.79939 21.3067C9.27025 21.3788 8.74434 21.3605 8.31955 21.3013C6.03414 20.9808 4.42416 19.2676 4.37576 16.8575C4.34997 15.7798 4.34997 15.1679 4.37576 14.0892C4.42524 11.6629 6.11374 9.8884 8.44108 9.63997C8.57551 9.62383 9.08206 9.57973 9.57462 9.63244C11.533 9.84215 13.0043 11.0187 13.5345 12.8029L17.7934 11.9802C16.8792 8.49994 13.7227 6.02637 9.68754 6.02637H8.46471C3.73262 6.02637 0.151308 9.42593 0.0545147 13.8891C0.0287034 15.126 0.0287034 15.8476 0.0545147 17.0844C0.151308 21.5487 3.73262 24.9472 8.46471 24.9472H9.68754C13.8012 24.9472 16.9879 22.3779 17.8289 18.774L13.5162 18.1835Z" fill="#2A2A2A"/>
<path fill-rule="evenodd" clip-rule="evenodd" d="M236.587 0.864258H155.271C153.385 0.864258 151.855 2.39358 151.855 4.27997V25.0613C151.855 26.9477 153.385 28.477 155.271 28.477H236.587C238.474 28.477 240.004 26.9477 240.004 25.0613V4.27997C240.004 2.39358 238.474 0.864258 236.587 0.864258ZM161.088 7.62097H174.632L171.464 22.7959H167.627L170.014 11.3034H164.167L161.757 22.7959H157.918L161.088 7.62097ZM192.48 7.62097H180.897C180.229 10.9237 179.404 14.6051 178.823 17.0152C178.466 18.4445 177.729 19.0016 176.435 19.0016H175.676L174.895 22.7959H176.614C179.826 22.7959 181.478 21.6796 182.439 17.6411C182.735 16.3669 183.023 15.0633 183.296 13.8329L183.296 13.8313L183.296 13.8308C183.496 12.9279 183.687 12.0644 183.866 11.2808H187.861L185.451 22.7959H189.312L192.48 7.62097ZM212.893 14.0238C212.893 12.1266 211.822 10.8769 209.88 10.8769C207.046 10.8769 205.306 13.6667 205.306 16.4565C205.306 18.3085 206.488 19.5356 208.295 19.5356C211.218 19.5356 212.893 16.8802 212.893 14.0238ZM201.355 17.0362H199.057L197.851 22.7943H194.013L197.182 7.61932H201.021L199.816 13.3549H201.913C202.962 10.0962 205.596 7.39563 210.192 7.39563C214.365 7.39563 216.843 9.80576 216.843 13.5775C216.843 18.1751 214.253 23.0169 207.982 23.0169C203.989 23.0169 201.423 20.7401 201.355 17.0362ZM234.014 17.8396L230.265 17.148C229.618 18.5763 228.347 19.5356 226.695 19.5356C224.999 19.5356 223.928 18.4203 223.928 16.4565C223.928 13.6001 225.601 10.8769 228.257 10.8769C229.952 10.8769 230.756 11.904 230.913 13.2204L234.84 12.573C234.662 9.35946 232.497 7.39563 228.591 7.39563C222.811 7.39563 220 12.2385 220 16.8802C220 20.6519 222.588 23.0169 226.404 23.0169C230.488 23.0169 232.854 21.0305 234.014 17.8396Z" fill="#2A2A2A"/>
</g>
<defs>
<clipPath id="clip0_3102_31960">
<rect width="240.251" height="29.3386" fill="white"/>
</clipPath>
</defs>
</svg>
