<svg width="175" height="50" viewBox="0 0 175 50" fill="none" xmlns="http://www.w3.org/2000/svg">
<g clip-path="url(#clip0_3126_27343)">
<path d="M106.011 28.0872C106.011 28.0872 105.662 26.8061 105.662 25.8566V11.0013H111.611V39.6145L92.5636 23.8418C91.5444 22.9759 90.9413 22.009 90.9413 22.009C90.9413 22.009 91.2433 23.0751 91.2433 23.9976L91.2381 38.9687H85.2852V10.4678L104.158 25.9236C105.17 26.7809 106.011 28.0872 106.011 28.0872Z" fill="#2A2A2A"/>
<path d="M159.881 11.0039C169.309 11.0039 171.724 14.7219 171.724 20.0656C171.724 23.9385 168.872 27.733 163.12 28.1821L162.49 28.2126C162.49 28.2126 163.046 28.3109 163.627 28.8705L174.066 38.9678H166L151.427 24.1717H158.683C165.182 24.1717 165.371 20.747 165.416 19.8837C165.537 17.6609 164.826 15.8837 159.87 15.8837H151.573V38.9678H145.391V11.0039H159.881Z" fill="#2A2A2A"/>
<path d="M114.285 25.3853C114.285 13.6701 124.091 10.5918 132.334 10.5918C135.634 10.5918 138.556 10.8877 141.632 11.5396L141.641 17.4803C139.872 16.9364 136.321 15.7423 132.335 15.7423C124.52 15.7423 120.725 18.7779 120.725 25.3845C120.725 30.7961 124.816 34.2434 132.335 34.2434C136.321 34.2434 140.312 33.2947 142.245 32.5819L142.233 38.3451C139.161 38.9935 135.635 39.3938 132.335 39.3938C123.53 39.3947 114.285 35.1154 114.285 25.3853Z" fill="#2A2A2A"/>
<path d="M47.3352 11.7236L53.1376 17.1883C52.9792 17.2588 52.7964 17.3458 52.5814 17.4538C52.2455 17.6287 51.8451 17.8628 51.3656 18.1953C50.4091 18.8523 49.1629 19.9019 47.5684 21.6225L36.2283 33.6233C34.2849 35.6772 32.3102 37.3047 30.4738 38.1654L24.668 32.699C24.8264 32.625 25.0091 32.5432 25.2206 32.4301C25.5566 32.2586 25.9569 32.021 26.4364 31.6938C27.3903 31.0306 28.6401 29.9871 30.2362 28.2639L41.5737 16.2832C43.518 14.2319 45.4962 12.5844 47.3352 11.7236Z" fill="#2A2A2A"/>
<path d="M24.8726 40.733C27.4374 40.733 29.7951 40.2247 31.3947 39.3953C32.1258 39.0141 33.1693 38.3579 34.0666 37.6581C34.9604 36.961 36.2275 35.8749 37.2989 34.7356L48.6503 22.7689C51.5137 19.7533 53.2343 18.822 54.2786 18.4556L60.101 23.9708C58.8861 25.2701 44.3945 40.7042 44.3945 40.7042C43.4067 41.7712 42.3658 42.8008 41.6583 43.4492C40.9786 44.0758 39.8158 45.0097 39.2153 45.4492C35.8072 47.9461 31.2546 49.9713 25.1241 49.9713C11.2331 49.9713 0 38.6651 0 25.6461C0 9.49577 12.6186 0.124272 24.1111 0.124272C27.6341 0.0198352 30.4609 0.612517 32.6958 1.37143C34.7611 2.07377 36.3207 2.92319 37.4521 3.50108C36.1144 4.35833 34.8202 5.52716 32.6871 7.80563L30.3564 10.3078C29.8203 10.1015 27.4426 9.2721 24.3904 9.36523C17.0163 9.5828 8.95114 15.5601 9.24183 25.3659C9.51249 34.5346 17.0703 40.733 24.8726 40.733Z" fill="#2A2A2A"/>
<path d="M46.3339 10.576C45.6003 10.9598 44.5594 11.6143 43.6569 12.314C42.7657 13.0111 41.4994 14.0973 40.4245 15.2339L29.0757 27.2033C26.2124 30.2189 24.4909 31.1467 23.4474 31.5139L17.625 26.004C18.8434 24.7011 33.3324 9.26968 33.3324 9.26968C34.3228 8.20267 35.3611 7.1731 36.0686 6.52211C36.7483 5.89548 37.9111 4.96512 38.5168 4.52213C41.9188 2.02521 46.4775 0 52.608 0C66.4981 0 77.726 11.3071 77.726 24.3226C77.726 40.4781 65.11 49.8444 53.6149 49.8444C50.0945 49.9515 47.2652 49.3588 45.0337 48.5938C42.9632 47.894 41.3975 47.0394 40.2687 46.4641C41.6821 45.5103 42.8918 44.4642 45.0415 42.1674L47.3687 39.6653C47.9048 39.868 50.2834 40.6983 53.3382 40.6078C60.7097 40.3876 68.7775 34.4042 68.4868 24.6011C68.2135 15.4367 60.6505 9.23573 52.8525 9.23573C50.2834 9.23573 47.9362 9.74661 46.3339 10.576Z" fill="#2A2A2A"/>
</g>
<defs>
<clipPath id="clip0_3126_27343">
<rect width="174.062" height="49.9715" fill="white"/>
</clipPath>
</defs>
</svg>
