<svg width="241" height="43" viewBox="0 0 241 43" fill="none" xmlns="http://www.w3.org/2000/svg">
<path d="M0 21.6936V0.36562H4.79529V21.6936H0ZM20.3024 21.9982C16.7319 21.9982 13.6492 20.8607 11.0544 18.5858L13.8879 15.2647C16.0261 16.9913 18.1954 17.8545 20.3958 17.8545C21.3715 17.8545 22.1396 17.6717 22.7001 17.3061C23.2605 16.9405 23.5408 16.4327 23.5408 15.7827C23.5408 15.1733 23.2501 14.6858 22.6689 14.3202C22.0877 13.9342 20.9148 13.5179 19.1503 13.071C17.9048 12.7663 16.898 12.4718 16.1299 12.1874C15.3618 11.8827 14.6249 11.4866 13.9191 10.9991C13.2341 10.5117 12.7255 9.90225 12.3933 9.17104C12.0819 8.41943 11.9263 7.52569 11.9263 6.48981C11.9263 4.56011 12.6321 3.00622 14.0437 1.82811C15.476 0.649989 17.3131 0.0609332 19.5551 0.0609332C22.6482 0.0609332 25.3468 0.964831 27.651 2.77263L25.16 6.30696C23.1049 4.90544 21.2158 4.20465 19.4928 4.20465C18.6002 4.20465 17.9048 4.38746 17.4066 4.75308C16.9291 5.09842 16.6904 5.55542 16.6904 6.12417C16.6904 6.8148 16.9914 7.33278 17.5934 7.67803C18.1954 8.02334 19.4617 8.43976 21.3922 8.92728C23.7587 9.53661 25.5025 10.3187 26.6234 11.2733C27.7445 12.228 28.3049 13.5991 28.3049 15.3866C28.3049 17.4584 27.568 19.0834 26.0941 20.2615C24.641 21.4193 22.7104 21.9982 20.3024 21.9982ZM34.773 21.6936V0.36562H39.5683V17.428H50.4354V21.6936H34.773ZM54.4901 21.6936L63.8315 0.213273H68.2535L77.5944 21.6936H72.5816L70.5883 16.91H61.3716L59.3788 21.6936H54.4901ZM63.0843 12.7663H68.8759L65.9802 5.84996L63.0843 12.7663ZM83.2654 21.6936V0.36562H87.6869L97.8999 13.4975V0.36562H102.633V21.6936H98.5542L87.9982 8.13509V21.6936H83.2654ZM110.172 21.6936V0.36562H118.673C122.078 0.36562 124.859 1.38124 127.018 3.41247C129.177 5.42341 130.256 7.96243 130.256 11.0296C130.256 14.0764 129.166 16.6154 126.987 18.6467C124.828 20.6779 122.057 21.6936 118.673 21.6936H110.172ZM114.967 17.4584H118.673C120.645 17.4584 122.233 16.8694 123.437 15.6912C124.641 14.4928 125.243 12.9389 125.243 11.0296C125.243 9.14052 124.63 7.59679 123.406 6.39839C122.202 5.19998 120.624 4.60074 118.673 4.60074H114.967V17.4584ZM156.231 21.9982C152.66 21.9982 149.578 20.8607 146.983 18.5858L149.817 15.2647C151.955 16.9913 154.124 17.8545 156.324 17.8545C157.3 17.8545 158.068 17.6717 158.628 17.3061C159.189 16.9405 159.469 16.4327 159.469 15.7827C159.469 15.1733 159.179 14.6858 158.597 14.3202C158.016 13.9342 156.844 13.5179 155.079 13.071C153.834 12.7663 152.827 12.4718 152.058 12.1874C151.29 11.8827 150.553 11.4866 149.848 10.9991C149.162 10.5117 148.654 9.90225 148.322 9.17104C148.01 8.41943 147.855 7.52569 147.855 6.48981C147.855 4.56011 148.56 3.00622 149.972 1.82811C151.405 0.649989 153.242 0.0609332 155.484 0.0609332C158.576 0.0609332 161.275 0.964831 163.58 2.77263L161.089 6.30696C159.033 4.90544 157.144 4.20465 155.422 4.20465C154.529 4.20465 153.834 4.38746 153.335 4.75308C152.858 5.09842 152.619 5.55542 152.619 6.12417C152.619 6.8148 152.92 7.33278 153.522 7.67803C154.124 8.02334 155.39 8.43976 157.321 8.92728C159.687 9.53661 161.431 10.3187 162.552 11.2733C163.673 12.228 164.233 13.5991 164.233 15.3866C164.233 17.4584 163.496 19.0834 162.023 20.2615C160.57 21.4193 158.639 21.9982 156.231 21.9982ZM189.571 18.86C187.371 20.9928 184.61 22.0592 181.289 22.0592C177.967 22.0592 175.206 20.9928 173.006 18.86C170.826 16.7272 169.737 14.1171 169.737 11.0296C169.737 7.96243 170.837 5.36244 173.037 3.22966C175.258 1.07655 178.029 0 181.351 0C184.672 0 187.422 1.06639 189.602 3.19919C191.803 5.33199 192.903 7.94211 192.903 11.0296C192.903 14.0967 191.792 16.7069 189.571 18.86ZM176.618 15.7827C177.863 17.0826 179.441 17.7326 181.351 17.7326C183.261 17.7326 184.828 17.0928 186.052 15.8131C187.278 14.5132 187.89 12.9187 187.89 11.0296C187.89 9.16084 187.267 7.57647 186.021 6.2765C184.776 4.97654 183.199 4.32652 181.289 4.32652C179.379 4.32652 177.812 4.97654 176.587 6.2765C175.362 7.55621 174.749 9.14052 174.749 11.0296C174.749 12.8983 175.373 14.4827 176.618 15.7827ZM208.555 22.0287C205.587 22.0287 203.273 21.2264 201.612 19.6217C199.951 17.9967 199.121 15.6405 199.121 12.553V0.36562H203.916V12.4311C203.916 14.1374 204.321 15.4475 205.131 16.3616C205.961 17.2553 207.123 17.7022 208.618 17.7022C210.112 17.7022 211.264 17.2655 212.074 16.392C212.905 15.5186 213.32 14.2491 213.32 12.5835V0.36562H218.115V12.4007C218.115 15.5694 217.264 17.9663 215.561 19.5912C213.88 21.2162 211.545 22.0287 208.555 22.0287ZM225.306 21.6936V0.36562H230.101V17.428H240.968V21.6936H225.306Z" fill="#2A2A2A"/>
<path d="M86.5107 42.1469C85.4343 42.1469 84.6041 41.6805 84.0195 40.7476L84.6772 40.1947C84.9383 40.5784 85.2076 40.8642 85.4843 41.0523C85.7685 41.2329 86.1149 41.3231 86.5222 41.3231C86.9911 41.3231 87.372 41.1614 87.6643 40.8379C87.9559 40.5069 88.102 40.0367 88.102 39.4274V34.1349H89.0249V39.416C89.0249 40.3188 88.7786 41.0109 88.2867 41.4924C87.8253 41.9288 87.2333 42.1469 86.5107 42.1469ZM93.4849 42.0341V34.1349H99.3204V34.9473H94.3962V37.6444H98.8015V38.4569H94.3962V41.2216H99.3779V42.0341H93.4849ZM105.778 42.0905L102.895 34.1349H103.887L106.193 40.7138L108.408 34.1123H109.157L111.371 40.7138L113.677 34.1349H114.635L111.752 42.0905H110.979L108.765 35.6809L106.539 42.0905H105.778ZM118.596 42.0341V34.1349H124.431V34.9473H119.506V37.6444H123.912V38.4569H119.506V41.2216H124.489V42.0341H118.596ZM128.628 42.0341V34.1349H129.539V41.2103H134.083V42.0341H128.628ZM138.075 42.0341V34.1349H141.546C142.538 34.1349 143.303 34.3982 143.841 34.9248C144.256 35.331 144.464 35.8576 144.464 36.5046C144.464 37.1366 144.264 37.6481 143.864 38.0393C143.465 38.4305 142.934 38.6863 142.272 38.8067L144.752 42.0341H143.634L141.292 38.9647H138.986V42.0341H138.075ZM138.986 38.1635H141.465C142.08 38.1635 142.58 38.0168 142.965 37.7234C143.349 37.4299 143.541 37.0275 143.541 36.5159C143.541 36.0269 143.356 35.647 142.988 35.3762C142.626 35.0978 142.123 34.9586 141.477 34.9586H138.986V38.1635ZM150.948 42.0341V38.9083L147.592 34.1349H148.699L151.421 38.0845L154.166 34.1349H155.227L151.871 38.897V42.0341H150.948Z" fill="#2A2A2A"/>
</svg>
