<svg width="224" height="45" viewBox="0 0 224 45" fill="none" xmlns="http://www.w3.org/2000/svg">
<path d="M116.948 12.7901V27.5783C116.948 31.7788 114.864 34.0201 111.077 34.0201C107.268 34.0201 105.171 31.7141 105.171 27.399V12.8063H99.9312V27.5783C99.9312 34.8466 103.968 39.0117 111.008 39.0117C118.113 39.0117 122.188 34.7668 122.188 27.3652V12.7901H116.948ZM136.227 12.7901L124.846 38.6091H130.195L132.392 33.6087L132.549 33.2339H144.372L146.691 38.609H152.185L140.91 12.9429L140.809 12.79L136.227 12.7901ZM167.383 12.7901L161.518 30.5552L155.81 12.8034H150.233L159.235 38.6252H163.574L169.45 21.6624L175.322 38.6252H179.698L188.677 12.8034H183.244L177.523 30.5552L171.657 12.7901H167.383ZM218.661 12.7901V38.587H223.831V12.7901H218.661ZM70.3477 12.7916V38.6238H75.589V28.1322H87.4236V38.6238H92.6665V12.7916H87.4236V23.2127H75.589V12.7916H70.3477ZM192.903 12.8091V38.6061H212.411V33.9025H198.074V27.5061H207.608V22.8011H198.074V17.5127H211.912V12.8091H192.903ZM138.447 19.3274L142.184 27.9763H142.171L142.425 28.5729H134.498L134.749 27.9763H134.744L138.447 19.3274Z" fill="#2A2A2A"/>
<path d="M25.4858 0.00110439C24.6883 0.0716411 22.5334 0.562151 22.5334 0.562151H22.5325C17.6752 1.81762 16.5272 6.22547 16.5272 6.22547C16.29 6.96667 16.1822 7.72629 16.1505 8.44194V9.41598C16.215 10.9209 16.5497 12.0446 16.5497 12.0446C18.1722 19.239 26.1497 31.0604 27.8642 33.5437C27.9858 33.6643 28.0832 33.6208 28.0832 33.6208C28.2683 33.5697 28.2538 33.3922 28.2538 33.3922L28.2573 33.3931C30.8981 6.99766 25.4858 0.00112996 25.4858 0.00112996L25.4858 0.00110439ZM34.2115 0.00110439C34.2115 0.00110439 28.7756 7.00136 31.4184 33.4121H31.4219C31.4423 33.5798 31.5613 33.6147 31.5613 33.6147C31.7381 33.6832 31.8288 33.5133 31.8288 33.5133L31.8297 33.515C33.5882 30.9683 41.5202 19.2112 43.1355 12.0445C43.1355 12.0445 44.0113 8.57574 43.1659 6.22533C43.1659 6.22533 41.9651 1.74923 37.1017 0.566356C37.1017 0.566356 35.7001 0.210559 34.2116 0.000976562L34.2115 0.00110439ZM9.13831 7.92505C9.13831 7.92505 4.51025 12.3177 4.28022 16.9746H4.28206V17.6802C4.28558 17.7333 4.28826 17.7871 4.29162 17.8412C4.49097 21.5964 7.31591 23.8188 7.31591 23.8188C11.8675 28.2549 22.8885 33.8556 25.4496 35.1264C25.4854 35.1398 25.6177 35.183 25.6955 35.0848C25.6955 35.0848 25.7359 35.0541 25.7543 34.999V34.8821C25.7525 34.8754 25.749 34.8687 25.7456 34.8613H25.7465C18.7331 19.5401 9.13842 7.92489 9.13842 7.92489L9.13831 7.92505ZM50.5477 7.92505C50.5477 7.92505 40.982 19.5038 33.9716 34.7939L33.9743 34.793C33.9743 34.793 33.8915 34.9703 34.0254 35.0848C34.0254 35.0848 34.0654 35.115 34.1206 35.1272H34.2176C34.235 35.1222 34.2537 35.1155 34.2722 35.1029V35.1046C36.9027 33.799 47.8385 28.2351 52.3686 23.8195C52.3686 23.8195 55.2374 21.5158 55.3877 17.8169C55.7189 12.6794 50.5478 7.92488 50.5478 7.92488L50.5477 7.92505ZM59.1574 23.1357C59.1574 23.1357 43.5623 31.5048 35.4989 36.9438L35.4998 36.9446L35.5017 36.9463C35.5017 36.9463 35.3553 37.0421 35.4064 37.2139C35.4064 37.2139 35.4829 37.3524 35.5943 37.3524V37.3533C38.4825 37.3583 49.4115 37.3706 49.6855 37.3195C49.6855 37.3195 51.0986 37.263 52.8448 36.5922C52.8448 36.5922 56.7322 35.3563 58.7514 30.9427C58.7514 30.9427 59.6741 29.0972 59.6874 26.5045V26.3946C59.6807 25.3948 59.5398 24.2879 59.1575 23.1357H59.1574ZM0.524309 23.1748C-0.894606 27.5674 1.01561 31.1068 1.01869 31.1125C3.00938 35.3187 6.80927 36.5932 6.80927 36.5932C8.56364 37.3139 10.3184 37.3637 10.3184 37.3637C10.5924 37.4138 21.2302 37.3688 24.0806 37.3554C24.2012 37.3545 24.2676 37.2332 24.2676 37.2332C24.276 37.2198 24.2833 37.2064 24.2867 37.1942V37.0843C24.263 37.0107 24.2001 36.9588 24.2001 36.9588L24.2019 36.9579C16.1426 31.5207 0.524437 23.175 0.524437 23.175L0.524309 23.1748ZM23.755 38.7058L5.40924 39.3491C7.39876 42.8956 10.7494 45.652 14.2397 44.8054C16.6484 44.2033 22.1051 40.3971 23.9065 39.1109L23.9005 39.1059C24.0406 38.9801 23.9905 38.8791 23.9905 38.8791C23.9445 38.7144 23.755 38.7145 23.755 38.7145L23.755 38.7058ZM35.9059 38.7192L35.904 38.7258C35.904 38.7258 35.743 38.7463 35.698 38.8669C35.698 38.8669 35.6588 39.0318 35.7672 39.1137L35.7654 39.1153C37.5218 40.3749 42.8463 44.0974 45.4114 44.8202C45.4114 44.8202 45.8 44.9524 46.4513 44.976H46.8426C48.5612 44.9157 51.5551 44.0328 54.2757 39.3586L35.9059 38.7192Z" fill="#2A2A2A"/>
</svg>
