<svg width="155" height="42" viewBox="0 0 155 42" fill="none" xmlns="http://www.w3.org/2000/svg">
<path fill-rule="evenodd" clip-rule="evenodd" d="M6.60987 0.0251284C5.94395 -0.0251326 4.09417 0.577996 3.10763 3.14127L0 10.0018H15.9081L16.0314 41.4648H32.3834L32.2601 10.0018H44.6906V0.0251284H6.60987ZM70.0449 0.0251284V5.06373V10.1023H64.8902V15.6058H70.0449V24.5271H64.8162V32.4431H70.0449V41.4145H48.5381V4.04596C48.8588 1.45755 50.5852 0 52.7556 0L70.0449 0.0251284ZM70.0449 10.1023V0.0251284H91.8969C89.2086 5.8302 88.6167 9.90129 84.6458 10.1023H70.0449ZM92.3655 23.5219V33.6996C90.935 37.9466 86.9889 41.4145 76.1862 41.4145H70.0449V32.4431H70.9575C73.8678 32.4179 74.7803 30.9101 75.3229 28.6735C75.3229 26.3113 73.9664 24.5271 70.6861 24.5271H70.0449V15.6058H77.5673C86.8409 15.6058 90.8857 19.0236 92.3655 23.5219ZM92.3655 39.4041L91.601 41.2638H92.3655V39.4041ZM92.3655 33.6996V23.5219C92.9081 25.1804 93.1301 26.9898 93.1301 28.8243C93.0808 30.4578 92.8835 32.1415 92.3655 33.6996ZM144.085 0H136.464H136.366C134.269 0.0251305 132.839 1.05546 132.148 3.11614L126.673 18.6969V0H119.002H111.381H111.283C109.186 0.0251305 107.78 1.05546 107.065 3.11614L92.3655 39.4041V41.2638H100.801C103.119 41.2638 104.845 40.3842 105.709 38.2984L113.502 18.923V41.3894H126.007C128.325 41.3894 130.052 40.3842 130.915 38.2984L137.993 18.8728V41.2386H154.148V0H144.085Z" fill="#2A2A2A"/>
</svg>
