<?xml version="1.0" encoding="utf-8"?><svg width="111" height="18" fill="none" xmlns="http://www.w3.org/2000/svg" viewBox="0 0 111 18"><g clip-path="url(#anclip0_7214_14899)"><path d="M0 0v17.38h17.38V0H0zm6.675 13.502l6.832-6.829v6.829H6.675zM3.873 10.82V3.877h6.945L3.873 10.82z" fill="#2A2A2A"/></g><g clip-path="url(#anclip1_7214_14899)"><path d="M22.34.331h-.31V17.066H25.881V11.047h1.762c1.933 0 3.499-.463 4.586-1.373 1.095-.917 1.666-2.253 1.666-3.907v-.088 0c-.002-1.677-.58-3.03-1.686-3.957C31.11.8 29.528.33 27.574.33H22.34zm19.116 6.33H39.13V3.568h7.016V.33H35.301V17.066H41.396c1.892 0 3.425-.457 4.49-1.356 1.074-.905 1.632-2.224 1.632-3.857v-.096c0-1.614-.538-2.905-1.596-3.787-1.05-.874-2.569-1.31-4.467-1.31zm11.32.051V.331H48.924V17.066H52.775V10.488l5.324 6.465.094.113h4.659l-.423-.508-6.832-8.218L62.102.824l.445-.514h-4.372l-.093.11-5.306 6.292zm-22.663-.945c0 .775-.226 1.319-.622 1.674-.402.361-1.029.572-1.917.572h-1.692V3.52h1.692c.938 0 1.561.19 1.95.524.378.327.589.841.589 1.631v.09zM39.13 13.9l-.007-4.202h2.074c.94 0 1.578.189 1.977.515.387.317.6.804.6 1.529v.088c0 .727-.212 1.224-.588 1.547-.385.33-.993.523-1.877.523h-2.18z" fill="#2A2A2A" stroke="#2A2A2A" stroke-width=".621"/></g><g clip-path="url(#anclip2_7214_14899)"><path d="M22.965.331h-.31V17.066H26.506V11.047h1.762c1.933 0 3.499-.463 4.586-1.373 1.095-.917 1.666-2.253 1.666-3.907v-.088 0c-.002-1.677-.58-3.03-1.686-3.957C31.735.8 30.153.33 28.199.33h-5.234zm19.116 6.33h-2.326V3.568h7.016V.33H35.926V17.066H42.021c1.892 0 3.425-.457 4.49-1.356 1.074-.905 1.632-2.224 1.632-3.857v-.096c0-1.614-.538-2.905-1.596-3.787-1.05-.874-2.569-1.31-4.467-1.31zm11.32.051V.331H49.55V17.066H53.4V10.488l5.324 6.465.094.113h4.659l-.423-.508-6.832-8.218L62.727.824l.445-.514H58.8l-.093.11-5.306 6.292zm-22.663-.945c0 .775-.226 1.319-.622 1.674-.402.361-1.029.572-1.917.572h-1.692V3.52H28.2c.938 0 1.561.19 1.95.524.378.327.589.841.589 1.631v.09zm9.017 8.133l-.007-4.202h2.074c.94 0 1.578.189 1.977.515.387.317.6.804.6 1.529v.088c0 .727-.212 1.224-.588 1.547-.385.33-.993.523-1.877.523h-2.18z" fill="#2A2A2A" stroke="#2A2A2A" stroke-width=".621"/></g><g clip-path="url(#anclip3_7214_14899)"><path d="M23.586.331h-.31V17.066H27.128V11.047h1.762c1.933 0 3.499-.463 4.586-1.373 1.095-.917 1.666-2.253 1.666-3.907v-.088 0c-.002-1.677-.58-3.03-1.686-3.957C32.356.8 30.774.33 28.82.33h-5.234zm19.116 6.33h-2.326V3.568h7.016V.33H36.547V17.066H42.642c1.892 0 3.425-.457 4.49-1.356 1.074-.905 1.632-2.224 1.632-3.857v-.096c0-1.614-.538-2.905-1.596-3.787-1.05-.874-2.569-1.31-4.467-1.31zm11.32.051V.331H50.17V17.066H54.022V10.488l5.325 6.465.093.113h4.659l-.423-.508-6.832-8.218L63.348.824l.445-.514H59.42l-.093.11-5.306 6.292zM31.36 5.767c0 .775-.226 1.319-.622 1.674-.402.361-1.028.572-1.917.572h-1.692V3.52h1.692c.938 0 1.561.19 1.95.524.378.327.589.841.589 1.631v.09zm9.017 8.133l-.007-4.202h2.074c.94 0 1.578.189 1.977.515.387.317.6.804.6 1.529v.088c0 .727-.212 1.224-.588 1.547-.385.33-.993.523-1.877.523h-2.18z" fill="#2A2A2A" stroke="#2A2A2A" stroke-width=".621"/></g><g clip-path="url(#anclip4_7214_14899)" fill="#2A2A2A"><path d="M70.758 0h6.603c4.754 0 6.965 2.116 6.965 5.809v.099c0 3.646-2.452 5.615-6.744 5.615h-1.867v5.856h-4.953V0h-.004zm6.38 8.118c1.604 0 2.453-.755 2.453-2.186v-.1c0-1.482-.872-2.087-2.429-2.087h-1.457v4.373h1.434zM86.277 4.6h4.396v2.556c.812-1.916 2.162-2.753 4.153-2.729v4.106c-2.678-.072-4.153.765-4.153 2.83v6.098h-4.396V4.6zM96.207 11.293v-.199c0-4.178 3.074-6.815 7.053-6.815 3.955 0 7.005 2.56 7.005 6.69v.198c0 4.227-3.074 6.767-7.029 6.767s-7.029-2.438-7.029-6.641zm9.585-.077v-.2c0-2.19-.862-3.407-2.532-3.407-1.646 0-2.556 1.168-2.556 3.36v.198c0 2.24.862 3.456 2.556 3.456 1.646 0 2.532-1.24 2.532-3.407z"/></g><defs><clipPath id="anclip0_7214_14899"><path fill="#fff" d="M0 0h17.379v17.379H0z"/></clipPath><clipPath id="anclip1_7214_14899"><path fill="#fff" transform="translate(21.723)" d="M0 0h13.034v17.379H0z"/></clipPath><clipPath id="anclip2_7214_14899"><path fill="#fff" transform="translate(35.379)" d="M0 0h13.655v17.379H0z"/></clipPath><clipPath id="anclip3_7214_14899"><path fill="#fff" transform="translate(49.652)" d="M0 0h15.517v17.379H0z"/></clipPath><clipPath id="anclip4_7214_14899"><path fill="#fff" transform="translate(70.758)" d="M0 0h39.724v18H0z"/></clipPath></defs></svg>