<?xml version="1.0" encoding="utf-8"?><svg width="278" height="100" fill="none" xmlns="http://www.w3.org/2000/svg" viewBox="0 0 278 100"><g clip-path="url(#oclip0_7147_14330)" fill="#2A2A2A"><path d="M39.617 30c4.579 0 7.738-2.087 9.738-6.319h-4.26c-.494 1.102-1.19 1.884-2.117 2.32-.753.376-1.855.52-3.304.52-3.856 0-6.116-1.911-6.754-5.65l-.115-.697H50.31c-.028-2.145-.29-3.884-.753-5.159-.783-2.174-2.087-3.913-3.826-5.13-1.768-1.217-3.855-1.855-6.174-1.855-3.072 0-5.594 1.073-7.68 3.218-2.058 2.115-3.073 4.753-3.073 7.796 0 3.189 1.014 5.797 3.014 7.885 2 2.057 4.637 3.071 7.798 3.071zm-6.783-12.637h.029l.202-.725c.9-3.362 3.13-5.072 6.551-5.072 3.536 0 5.71 1.71 6.464 5.101l.145.725H32.834v-.03zM28.001 25.76h-2.89L16.903 0h-5.885L2.852 25.76H0v3.573h28.001v-3.574zm-20.64 0L13.915 3.7l6.648 22.06H7.36zM54.162 29.39l5.275-16.144 5.247 16.144h4.29l-7.45-21.13h-4.057l-7.479 21.13h4.174zM79.708 8.26c-3.13 0-5.71.986-7.826 3.015-2.117 2.03-3.16 4.55-3.16 7.652 0 3.218.986 5.768 3.073 7.797 2.058 2.058 4.666 3.043 7.884 3.043s5.855-1.015 7.884-3.014c2.058-2.03 3.073-4.61 3.073-7.826.057-3.102-.986-5.623-3.102-7.653-2.116-2.028-4.696-3.013-7.826-3.013zm5.072 16c-1.275 1.392-2.956 2.088-5.043 2.088-2.116 0-3.826-.696-5.072-2.088-1.247-1.362-1.884-3.13-1.884-5.217 0-2.115.637-3.884 1.883-5.246 1.276-1.392 2.957-2.117 5.073-2.117 2.115 0 3.854.696 5.072 2.088 1.217 1.362 1.855 3.13 1.855 5.275-.028 2.116-.667 3.855-1.884 5.217zM122.119 8.26c-3.131 0-5.711.986-7.827 3.015-2.116 2.03-3.159 4.55-3.159 7.652 0 3.218.986 5.768 3.073 7.797 2.057 2.058 4.666 3.043 7.883 3.043 3.218 0 5.856-1.015 7.885-3.014 2.057-2.03 3.072-4.61 3.072-7.826.058-3.102-.986-5.623-3.101-7.653-2.116-2.028-4.696-3.013-7.826-3.013zm5.071 16c-1.274 1.392-2.956 2.088-5.043 2.088-2.116 0-3.826-.696-5.072-2.088-1.246-1.362-1.884-3.13-1.884-5.217 0-2.115.637-3.884 1.884-5.246 1.276-1.392 2.956-2.117 5.072-2.117s3.855.696 5.072 2.088c1.218 1.362 1.855 3.13 1.855 5.275-.027 2.116-.666 3.855-1.884 5.217zM106.225 17.958c.752-1.02 1.126-2.227 1.126-3.667.031-1.726-.563-3.188-1.766-4.342-1.193-1.144-2.63-1.7-4.39-1.7h-6.557v.01h-1.724v21.072h3.651v.013h6.543c1.787 0 3.276-.574 4.426-1.707 1.173-1.157 1.744-2.596 1.744-4.39.032-1.727-.562-3.187-1.766-4.342a6.096 6.096 0 00-1.287-.947zm-5.016-6.485c.83 0 1.478.259 1.927.772.477.533.719 1.234.719 2.078-.011.842-.257 1.536-.727 2.062-.481.525-1.108.78-1.919.78h-4.644v-5.692h4.644zm3.847 13.87c-.481.523-1.109.779-1.92.779h-6.57v-5.693h6.57c.831 0 1.479.26 1.928.773.477.533.719 1.233.719 2.077-.012.842-.257 1.536-.727 2.063zM227.606 10.26c-1.344-1.324-3.089-1.995-5.186-1.995h-9.994v21.072h3.666v-6.871h6.344c2.067 0 3.75-.65 5.145-1.99 1.405-1.347 2.098-3.054 2.061-5.077.001-2.106-.666-3.787-2.036-5.14zm-2.575 7.833c-.606.694-1.472 1.045-2.577 1.045h-6.362v-7.546h6.362c1.078 0 1.917.344 2.565 1.052.625.697.948 1.611.964 2.717 0 1.107-.32 2.026-.952 2.732zM149.067 8.26l-9.612 15.237V8.26h-3.682v21.072h4.03l9.622-15.253v15.253h3.671V8.26h-4.029zM176.625 24.122l-5.79-15.86h-5.866v21.03h3.732s.007-13.795 0-15.018l5.979 15.06h3.867l5.906-14.96c-.054 1.21 0 14.919 0 14.919h3.66V8.263h-5.722l-5.766 15.859zM149.86 3.703h-10.84V5.82h10.84V3.703zM149.86.075h-10.84v2.087h10.84V.075zM204.898 8.26l-9.611 15.237V8.26h-3.682v21.072h4.029l9.623-15.253v15.253h3.671V8.26H204.898z"/></g><defs><clipPath id="oclip0_7147_14330"><path fill="#fff" d="M0 0h229.643v30H0z"/></clipPath></defs></svg>