<?xml version="1.0" encoding="utf-8"?><svg width="278" height="100" fill="none" xmlns="http://www.w3.org/2000/svg" viewBox="0 0 278 100"><g clip-path="url(#qclip0_7147_14332)" fill="#2A2A2A"><path d="M32.022 0H5.978C2.703 0 0 2.703 0 5.978v26.044C0 35.297 2.703 38 5.978 38h26.044C35.297 38 38 35.297 38 32.022V5.978C38 2.703 35.335 0 32.022 0zm-3.579 8.872h-15.65v7.996h15.65v3.084h-15.65v9.138h15.65v3.122H9.557V5.788h18.886v3.084zM164.107 16.982c.228-.837.533-1.599.99-2.246.457-.648.952-1.219 1.523-1.676.571-.457 1.218-.8 1.866-1.066.685-.228 1.332-.38 2.018-.38a5.85 5.85 0 012.741.685 7.454 7.454 0 012.247 1.866c.647.8 1.066 1.751 1.371 2.817h-12.756zm22.808 7.958h-3.808v3.922h3.808V24.94zm13.06-16.182a8.008 8.008 0 00-2.323.114 6.74 6.74 0 00-2.246.876 5.9 5.9 0 00-1.828 1.675V9.215h-3.122v19.609h3.236V17.477c0-.99.191-1.827.495-2.55.343-.724.8-1.295 1.371-1.752a5.273 5.273 0 012.018-.99 8.294 8.294 0 012.399-.229V8.758zm19.343.457h-3.237v12.032c0 .99-.228 1.866-.685 2.627-.457.762-1.066 1.37-1.828 1.79-.761.457-1.637.685-2.627.685-1.028 0-1.942-.228-2.627-.647-.724-.42-1.257-1.028-1.638-1.79-.38-.761-.571-1.675-.571-2.741V9.215h-3.198v11.803c0 1.219.19 2.323.495 3.351a7.708 7.708 0 001.485 2.627 7.107 7.107 0 002.361 1.714c.951.419 2.018.609 3.198.609 1.218 0 2.285-.229 3.275-.685a7.57 7.57 0 002.474-1.904v2.132h3.123V9.215zM176.52 22.732c-.533 1.142-1.295 2.056-2.285 2.665-.99.61-2.17.952-3.541.952a7.179 7.179 0 01-2.361-.419 7.858 7.858 0 01-2.094-1.256 7.726 7.726 0 01-1.561-2.056c-.419-.8-.685-1.714-.8-2.742h16.488c0-1.409-.191-2.665-.534-3.846-.342-1.18-.837-2.208-1.485-3.084-.647-.914-1.37-1.675-2.208-2.284a10.904 10.904 0 00-2.703-1.447c-.952-.305-1.942-.495-2.97-.495-1.371 0-2.666.266-3.846.8a10.1 10.1 0 00-3.122 2.208c-.914.952-1.6 2.056-2.133 3.274a10.821 10.821 0 00-.761 3.998c0 1.447.266 2.78.799 4.036.495 1.257 1.219 2.323 2.133 3.275a10.34 10.34 0 003.198 2.17c1.219.533 2.551.8 3.96.8 1.523 0 2.894-.267 4.112-.762a8.787 8.787 0 003.161-2.208c.875-.99 1.523-2.17 2.018-3.58h-3.465zM160.261 9.215h-3.427l-5.407 15.611-5.444-15.611h-3.427l7.12 19.609h3.465l7.12-19.61zm-20.942 0h-3.236v19.609h3.236V9.214zm-6.359 16.639c-.609.038-1.18 0-1.713-.114a3.842 3.842 0 01-1.447-.647c-.419-.305-.761-.762-.99-1.333-.228-.571-.381-1.257-.381-2.132v-9.33h4.455V9.216h-4.455V5.026h-3.198v4.189h-2.665v3.084h2.665v9.329c0 1.256.19 2.36.571 3.312a6.49 6.49 0 001.599 2.36 6.083 6.083 0 002.437 1.334c.952.266 1.98.342 3.122.19v-2.97zm-13.25-16.64h-3.237v12.033c0 .99-.228 1.866-.685 2.627-.457.762-1.066 1.37-1.828 1.79a5.387 5.387 0 01-2.627.685c-1.028 0-1.942-.228-2.627-.647-.724-.42-1.257-1.028-1.638-1.79-.38-.761-.571-1.675-.571-2.741V9.215h-3.198v11.803c0 1.219.19 2.323.495 3.351.343.99.838 1.866 1.485 2.627a7.107 7.107 0 002.361 1.714c.951.419 2.018.609 3.198.609 1.218 0 2.285-.229 3.275-.685a7.583 7.583 0 002.475-1.904v2.132h3.122V9.215zm-19.648 13.518h-3.465a6.075 6.075 0 01-1.37 1.866 5.51 5.51 0 01-1.904 1.18 6.893 6.893 0 01-2.399.419 5.82 5.82 0 01-2.551-.571 6.886 6.886 0 01-2.094-1.524c-.61-.647-1.066-1.408-1.41-2.284a7.523 7.523 0 01-.532-2.78c0-.99.19-1.942.533-2.817a7.59 7.59 0 011.409-2.323 6.42 6.42 0 012.094-1.561c.8-.38 1.637-.571 2.551-.571.838 0 1.637.152 2.36.419.724.266 1.371.685 1.905 1.18a6.883 6.883 0 011.408 1.866h3.465c-.457-1.333-1.104-2.475-1.98-3.465A9.196 9.196 0 0094.96 9.48c-1.218-.533-2.551-.8-4.036-.8-1.37 0-2.627.267-3.808.8a10.107 10.107 0 00-3.122 2.209c-.914.952-1.6 2.056-2.132 3.274a10.822 10.822 0 00-.762 3.998c0 1.447.267 2.78.762 3.998.495 1.257 1.218 2.323 2.132 3.275a9.925 9.925 0 003.122 2.208c1.18.533 2.475.8 3.808.8 1.485 0 2.818-.267 4.036-.8a8.844 8.844 0 003.122-2.284c.876-.914 1.523-2.095 1.98-3.427zm-37.771-5.75c.228-.837.533-1.599.99-2.246.456-.648.951-1.219 1.523-1.676.57-.457 1.218-.8 1.865-1.066.686-.228 1.333-.38 2.018-.38.952 0 1.866.228 2.742.685a7.448 7.448 0 012.246 1.866c.61.8 1.067 1.751 1.371 2.817H62.29zm12.412 5.75c-.533 1.142-1.294 2.056-2.284 2.665-.99.61-2.17.952-3.541.952-.8 0-1.6-.152-2.361-.419a7.856 7.856 0 01-2.094-1.256c-.648-.572-1.142-1.257-1.561-2.056-.42-.8-.686-1.714-.8-2.742H78.55c0-1.409-.19-2.665-.533-3.846-.343-1.18-.838-2.208-1.485-3.084-.647-.914-1.37-1.675-2.208-2.284a10.903 10.903 0 00-2.704-1.447c-.952-.305-1.942-.495-2.97-.495-1.37 0-2.665.266-3.845.8a10.105 10.105 0 00-3.123 2.208c-.875.914-1.599 2.056-2.132 3.274A10.821 10.821 0 0058.788 19c0 1.447.266 2.78.8 4.036.494 1.257 1.218 2.323 2.131 3.275.914.914 1.98 1.637 3.199 2.17 1.218.533 2.55.8 3.96.8 1.523 0 2.894-.267 4.112-.762a8.787 8.787 0 003.16-2.208c.876-.99 1.523-2.17 2.018-3.58h-3.465zM54.79 28.824h3.96l-7.044-10.128 6.587-9.481h-3.96l-4.569 7.006-4.569-7.006h-3.96l6.55 9.48-7.007 10.129h3.96l5.026-7.653 5.026 7.653zM139.322 2.398h-3.236v3.846h3.236V2.398z"/></g><defs><clipPath id="qclip0_7147_14332"><path fill="#fff" d="M0 0h219.319v38H0z"/></clipPath></defs></svg>