<?xml version="1.0" encoding="utf-8"?><svg xmlns="http://www.w3.org/2000/svg" xmlns:xlink="http://www.w3.org/1999/xlink" viewBox="0 0 23.25 1576.77" width="23.25" height="1576.77"><symbol id="awa" viewBox="0 0 24 24"><path d="M20 6L9 17l-5-5" fill="none" stroke="currentColor" stroke-width="3" stroke-linecap="round" stroke-linejoin="round"/></symbol><use xlink:href="#awa" width="24" height="24"/><view viewBox="0 0 24 24"/><symbol id="awb" viewBox="0 0 24 24"><path d="M17.94 17.94A10.07 10.07 0 0112 20c-7 0-11-8-11-8a18.45 18.45 0 015.06-5.94M9.9 4.24A9.12 9.12 0 0112 4c7 0 11 8 11 8a18.5 18.5 0 01-2.16 3.19m-6.72-1.07a3 3 0 11-4.24-4.24M1 1l22 22" fill="none" stroke="currentColor" stroke-width="3" stroke-linecap="round" stroke-linejoin="round"/></symbol><use xlink:href="#awb" y="24" width="24" height="24"/><view viewBox="0 24 24 24"/><symbol id="awc" viewBox="0 0 24 24"><path d="M20 4L4 20M4 4l16 16" fill="none" stroke="currentColor" stroke-width="3" stroke-linecap="round" stroke-linejoin="round"/></symbol><use xlink:href="#awc" y="48" width="24" height="24"/><view viewBox="0 48 24 24"/><symbol id="awd" viewBox="0 0 24 24"><g fill="none" stroke="currentColor" stroke-width="3" stroke-linecap="round" stroke-linejoin="round"><path d="M1 12s4-8 11-8 11 8 11 8-4 8-11 8-11-8-11-8z"/><circle cx="12" cy="12" r="3"/></g></symbol><use xlink:href="#awd" y="72" width="24" height="24"/><view viewBox="0 72 24 24"/><symbol id="awe" viewBox="0 0 24 24"><path d="M3 6h18m-2 0v14a2 2 0 01-2 2H7a2 2 0 01-2-2V6m3 0V4a2 2 0 012-2h4a2 2 0 012 2v2m-6 5v6m4-6v6" fill="none" stroke="currentColor" stroke-width="3" stroke-linecap="round" stroke-linejoin="round"/></symbol><use xlink:href="#awe" y="96" width="24" height="24"/><view viewBox="0 96 24 24"/><symbol id="awf" viewBox="0 0 24 24"><path fill="currentColor" d="M2.04 11.869a1.973 1.973 0 01-1.39-2.53l.388-1.2a1.976 1.976 0 012.564-1.254c2.867 1.067 5.02 2.008 6.454 2.826-.31-2.963-.521-5.3-.633-7.013C9.35 1.584 10.245.671 11.36.671h1.172c1.129 0 2.036.933 1.96 2.06-.135 1.991-.378 4.307-.734 6.944 1.993-1.004 4.214-1.947 6.668-2.83 1.044-.376 2.182.202 2.524 1.258l.437 1.35c.338 1.045-.23 2.173-1.287 2.477a43.855 43.855 0 01-7.143 1.447c1.215 1.057 2.841 2.795 4.88 5.213a1.978 1.978 0 01-.38 2.888l-1.005.713c-.89.63-2.124.432-2.736-.472-1.14-1.684-2.421-3.75-3.843-6.2-1.316 2.507-2.515 4.58-3.596 6.212-.6.906-1.828 1.09-2.71.454l-.98-.707a1.986 1.986 0 01-.376-2.877c2.115-2.555 3.676-4.296 4.683-5.224-2.375-.459-4.66-.963-6.854-1.508z"/></symbol><use xlink:href="#awf" y="120" width="24" height="24"/><view viewBox="0 120 24 24"/><symbol id="awg" viewBox="0 0 24 24"><path fill="currentColor" d="M5.692 10.644l3.58 3.758 9.036-9.489 2.226 2.34L9.272 19.088l-5.806-6.103 2.226-2.34z"/></symbol><use xlink:href="#awg" y="144" width="24" height="24"/><view viewBox="0 144 24 24"/><symbol id="awh" viewBox="0 0 24 24"><path d="M12 4v16m-8-8h16" fill="none" stroke="currentColor" stroke-width="2.25" stroke-linecap="round" stroke-linejoin="round"/></symbol><use xlink:href="#awh" y="168" width="24" height="24"/><view viewBox="0 168 24 24"/><symbol id="awi" viewBox="0 0 24 24"><g fill="none" stroke="currentColor" stroke-width="2.25" stroke-linecap="round" stroke-linejoin="round"><rect x="3" y="4" width="18" height="18" rx="2" ry="2"/><path d="M16 2v4M8 2v4m-5 4h18"/></g></symbol><use xlink:href="#awi" y="192" width="24" height="24"/><view viewBox="0 192 24 24"/><symbol id="awj" viewBox="0 0 24 24"><circle cx="12" cy="12" r="10" fill="none" stroke="currentColor" stroke-width="2.25" stroke-linecap="round" stroke-linejoin="round"/></symbol><use xlink:href="#awj" y="216" width="24" height="24"/><view viewBox="0 216 24 24"/><symbol id="awk" viewBox="0 0 24 24"><path d="M20 4L4 20M4 4l16 16" fill="none" stroke="currentColor" stroke-width="2.25" stroke-linecap="round" stroke-linejoin="round"/></symbol><use xlink:href="#awk" y="240" width="24" height="24"/><view viewBox="0 240 24 24"/><symbol id="awl" viewBox="0 0 24 24"><path d="M4 8l8 8 8-8" fill="none" stroke="currentColor" stroke-width="3" stroke-linecap="round" stroke-linejoin="round"/></symbol><use xlink:href="#awl" y="264" width="24" height="24"/><view viewBox="0 264 24 24"/><symbol id="awm" viewBox="0 0 24 24"><path d="M15.792 5.064C14.088 3.408 12.504 1.824 12.024 0c-.48 1.824-2.064 3.408-3.768 5.064-2.496 2.496-5.352 5.352-5.352 9.648-.144 5.016 3.888 9.192 8.904 9.288 5.016.096 9.216-3.888 9.288-8.904v-.384c.048-4.296-2.808-7.152-5.304-9.648zM7.56 15.528a5.498 5.498 0 00-.696 1.128c-.048.048-.096.12-.168.12h-.048c-.216 0-.432-.384-.432-.384-.048-.096-.12-.216-.168-.312L6 15.984c-.552-1.2-.096-2.904-.096-2.904.216-.816.6-1.632 1.08-2.328.312-.432.648-.864.984-1.296l.432.432 2.04 2.064c.096.096.096.216 0 .312L8.328 14.64l-.768.888zm4.56 5.952c-1.728 0-3.168-1.416-3.12-3.168 0-.768.312-1.512.768-2.064.648-.768 1.464-1.56 2.376-2.592 1.032 1.128 1.728 1.848 2.376 2.736.048.048.096.12.12.216.336.528.552 1.128.552 1.776.072 1.728-1.344 3.096-3.072 3.096zm5.904-5.016a.497.497 0 01-.312.264h-.048a.913.913 0 01-.312-.216c-.552-.816-1.176-1.608-1.848-2.28l-.816-.864-2.76-2.856a35.757 35.757 0 01-1.632-1.68c0-.048-.048-.048-.048-.048a1.218 1.218 0 01-.216-.432v-.096c-.096-.48.096-.96.432-1.296.528-.528 1.08-1.08 1.608-1.632.552.6 1.176 1.2 1.776 1.824 1.2 1.128 2.28 2.376 3.288 3.72.816 1.176 1.248 2.496 1.248 3.936-.096.504-.168 1.104-.36 1.656z"/></symbol><use xlink:href="#awm" y="288" width="24" height="24"/><view viewBox="0 288 24 24"/><symbol id="awn" viewBox="0 0 24 24"><path d="M12 4.92c.6.696 1.272 1.344 1.92 1.992 2.4 2.4 4.56 4.56 4.56 7.776v.408c-.096 3.528-3 6.384-6.528 6.384h-.12c-1.728-.048-3.384-.744-4.56-1.992-1.176-1.296-1.824-2.952-1.776-4.728v-.048c0-3.216 2.256-5.4 4.56-7.776A49.835 49.835 0 0012 4.92zM12 0c-.48 1.824-2.088 3.432-3.792 5.04-2.472 2.52-5.328 5.4-5.328 9.648-.12 5.04 3.912 9.216 8.904 9.312H12c4.92 0 9-3.96 9.12-8.904v-.384c0-4.296-2.88-7.128-5.352-9.648C14.088 3.432 12.48 1.824 12 0z"/></symbol><use xlink:href="#awn" y="312" width="24" height="24"/><view viewBox="0 312 24 24"/><symbol id="awo" viewBox="0 0 24 24"><path d="M8 20l8-8-8-8" fill="none" stroke="currentColor" stroke-width="3" stroke-linecap="round" stroke-linejoin="round"/></symbol><use xlink:href="#awo" y="336" width="24" height="24"/><view viewBox="0 336 24 24"/><symbol id="awp" viewBox="0 0 24 24"><path d="M12 13a1 1 0 100-2 1 1 0 000 2zm0-9a1 1 0 100-2 1 1 0 000 2zm0 18a1 1 0 100-2 1 1 0 000 2z" fill="none" stroke="currentColor" stroke-width="2.25" stroke-linecap="round" stroke-linejoin="round"/></symbol><use xlink:href="#awp" y="360" width="24" height="24"/><view viewBox="0 360 24 24"/><symbol id="awq" viewBox="0 0 24 24"><g fill="none" stroke="currentColor" stroke-width="2" stroke-linecap="round" stroke-linejoin="round"><rect x="3" y="3" width="18" height="18" rx="2" ry="2"/><path d="M14 3v18m4-12.25h2m-2 6h2"/></g></symbol><use xlink:href="#awq" y="384" width="24" height="24"/><view viewBox="0 384 24 24"/><symbol id="awr" viewBox="0 0 24 24"><path d="M14.7 6.3a1 1 0 000 1.4l1.6 1.6a1 1 0 001.4 0l3.77-3.77a6 6 0 01-7.94 7.94l-6.91 6.91a2.12 2.12 0 01-3-3l6.91-6.91a6 6 0 017.94-7.94l-3.76 3.76z" fill="none" stroke="currentColor" stroke-width="2.25" stroke-linecap="round" stroke-linejoin="round"/></symbol><use xlink:href="#awr" y="408" width="24" height="24"/><view viewBox="0 408 24 24"/><symbol id="aws" viewBox="0 0 24 24"><path d="M3 3h7v7H3zm11 0h7v7h-7zm0 11h7v7h-7zM3 14h7v7H3z" fill="none" stroke="currentColor" stroke-width="3" stroke-linecap="round" stroke-linejoin="round"/></symbol><use xlink:href="#aws" y="432" width="24" height="24"/><view viewBox="0 432 24 24"/><symbol id="awt" viewBox="0 0 24 24"><path d="M8 6h13M8 12h13M8 18h13M3 6h.01M3 12h.01M3 18h.01" fill="none" stroke="currentColor" stroke-width="3" stroke-linecap="round" stroke-linejoin="round"/></symbol><use xlink:href="#awt" y="456" width="24" height="24"/><view viewBox="0 456 24 24"/><symbol id="awu" viewBox="0 0 24 24"><path d="M17 3a2.828 2.828 0 114 4L7.5 20.5 2 22l1.5-5.5L17 3z" fill="none" stroke="currentColor" stroke-width="3" stroke-linecap="round" stroke-linejoin="round"/></symbol><use xlink:href="#awu" y="480" width="24" height="24"/><view viewBox="0 480 24 24"/><symbol id="awv" viewBox="0 0 24 24"><path d="M20 4L4 20M4 4l16 16" fill="none" stroke="currentColor" stroke-width="3" stroke-linecap="round" stroke-linejoin="round"/></symbol><use xlink:href="#awv" y="504" width="24" height="24"/><view viewBox="0 504 24 24"/><symbol id="aww" viewBox="0 0 24 24"><g fill="none" stroke="currentColor" stroke-width="2.25" stroke-linecap="round" stroke-linejoin="round"><circle cx="12" cy="12" r="10"/><path d="M4.93 4.93l14.14 14.14"/></g></symbol><use xlink:href="#aww" y="528" width="24" height="24"/><view viewBox="0 528 24 24"/><symbol id="awx" viewBox="0 0 24 24"><path d="M21 15a2 2 0 01-2 2H7l-4 4V5a2 2 0 012-2h14a2 2 0 012 2z" fill="none" stroke="currentColor" stroke-width="2.25" stroke-linecap="round" stroke-linejoin="round"/></symbol><use xlink:href="#awx" y="552" width="24" height="24"/><view viewBox="0 552 24 24"/><symbol id="awy" viewBox="0 0 24 24"><g fill="none" stroke="currentColor" stroke-width="2.25" stroke-linecap="round" stroke-linejoin="round"><circle cx="12" cy="12" r="10"/><path d="M9.09 9a3 3 0 015.83 1c0 2-3 3-3 3m.08 4h.01"/></g></symbol><use xlink:href="#awy" y="576" width="24" height="24"/><view viewBox="0 576 24 24"/><symbol id="awz" viewBox="0 0 24 24"><g fill="none" stroke="currentColor" stroke-width="2.25" stroke-linecap="round" stroke-linejoin="round"><path d="M22 11.08V12a10 10 0 11-5.93-9.14"/><path d="M22 4L12 14.01l-3-3"/></g></symbol><use xlink:href="#awz" y="600" width="24" height="24"/><view viewBox="0 600 24 24"/><symbol id="awA" viewBox="0 0 24 24"><path d="M7.86 2h8.28L22 7.86v8.28L16.14 22H7.86L2 16.14V7.86L7.86 2zM12 8v4m0 4h.01" fill="none" stroke="currentColor" stroke-width="2.25" stroke-linecap="round" stroke-linejoin="round"/></symbol><use xlink:href="#awA" y="624" width="24" height="24"/><view viewBox="0 624 24 24"/><symbol id="awB" viewBox="0 0 24 24"><path d="M11 17l-5-5 5-5m7 10l-5-5 5-5" fill="none" stroke="currentColor" stroke-width="2.25" stroke-linecap="round" stroke-linejoin="round"/></symbol><use xlink:href="#awB" y="648" width="24" height="24"/><view viewBox="0 648 24 24"/><symbol id="awC" viewBox="0 0 24 24"><path d="M13 17l5-5-5-5M6 17l5-5-5-5" fill="none" stroke="currentColor" stroke-width="2.25" stroke-linecap="round" stroke-linejoin="round"/></symbol><use xlink:href="#awC" y="672" width="24" height="24"/><view viewBox="0 672 24 24"/><symbol id="awD" viewBox="0 0 24 24"><path d="M9 18l6-6-6-6" fill="none" stroke="currentColor" stroke-width="2.25" stroke-linecap="round" stroke-linejoin="round"/></symbol><use xlink:href="#awD" y="696" width="24" height="24"/><view viewBox="0 696 24 24"/><symbol id="awE" viewBox="0 0 24 24"><path d="M15 18l-6-6 6-6" fill="none" stroke="currentColor" stroke-width="2.25" stroke-linecap="round" stroke-linejoin="round"/></symbol><use xlink:href="#awE" y="720" width="24" height="24"/><view viewBox="0 720 24 24"/><symbol id="awF" viewBox="0 0 24 24"><g fill="none" stroke="currentColor" stroke-width="2.25" stroke-linecap="round" stroke-linejoin="round"><circle cx="12" cy="12" r="10"/><path d="M12 6v6l4 2"/></g></symbol><use xlink:href="#awF" y="744" width="24" height="24"/><view viewBox="0 744 24 24"/><symbol id="awG" viewBox="0 0 24 24"><g fill="none" stroke="currentColor" stroke-width="2.25" stroke-linecap="round" stroke-linejoin="round"><ellipse cx="12" cy="5" rx="9" ry="3"/><path d="M21 12c0 1.66-4 3-9 3s-9-1.34-9-3"/><path d="M3 5v14c0 1.66 4 3 9 3s9-1.34 9-3V5"/></g></symbol><use xlink:href="#awG" y="768" width="24" height="24"/><view viewBox="0 768 24 24"/><symbol id="awH" viewBox="0 0 24 24"><g fill="none" stroke="currentColor" stroke-width="2.25" stroke-linecap="round" stroke-linejoin="round"><path d="M13 2H6a2 2 0 00-2 2v16a2 2 0 002 2h12a2 2 0 002-2V9z"/><path d="M13 2v7h7"/></g></symbol><use xlink:href="#awH" y="792" width="24" height="24"/><view viewBox="0 792 24 24"/><symbol id="awI" viewBox="0 0 24 24"><g fill="none" stroke="currentColor" stroke-width="2.25" stroke-linecap="round" stroke-linejoin="round"><rect x="2" y="2" width="20" height="8" rx="2" ry="2"/><rect x="2" y="14" width="20" height="8" rx="2" ry="2"/><path d="M6 6h.01M6 18h.01"/></g></symbol><use xlink:href="#awI" y="816" width="24" height="24"/><view viewBox="0 816 24 24"/><symbol id="awJ" viewBox="0 0 24 24"><path d="M7 13a1 1 0 100-2 1 1 0 000 2zm0-9a1 1 0 100-2 1 1 0 000 2zm0 18a1 1 0 100-2 1 1 0 000 2zm9-9a1 1 0 100-2 1 1 0 000 2zm0-9a1 1 0 100-2 1 1 0 000 2zm0 18a1 1 0 100-2 1 1 0 000 2z" fill="none" stroke="currentColor" stroke-width="2.25" stroke-linecap="round" stroke-linejoin="round"/></symbol><use xlink:href="#awJ" y="840" width="24" height="24"/><view viewBox="0 840 24 24"/><symbol id="awK" viewBox="0 0 24 24"><path d="M5 9l-3 3 3 3M9 5l3-3 3 3m0 14l-3 3-3-3M19 9l3 3-3 3M2 12h20M12 2v20" fill="none" stroke="currentColor" stroke-width="2.25" stroke-linecap="round" stroke-linejoin="round"/></symbol><use xlink:href="#awK" y="864" width="24" height="24"/><view viewBox="0 864 24 24"/><symbol id="awL" viewBox="0 0 24 24"><path d="M12 21V3m-7 7l7-7 7 7" fill="none" stroke="currentColor" stroke-width="2.25" stroke-linecap="round" stroke-linejoin="round"/></symbol><use xlink:href="#awL" y="888" width="24" height="24"/><view viewBox="0 888 24 24"/><symbol id="awM" viewBox="0 0 24 24"><path d="M12 3v18m7-7l-7 7-7-7" fill="none" stroke="currentColor" stroke-width="2.25" stroke-linecap="round" stroke-linejoin="round"/></symbol><use xlink:href="#awM" y="912" width="24" height="24"/><view viewBox="0 912 24 24"/><symbol id="awN" viewBox="0 0 24 24"><path d="M3 12h14M3 6h18M3 18h10" fill="none" stroke="currentColor" stroke-width="2.25" stroke-linecap="round" stroke-linejoin="round"/></symbol><use xlink:href="#awN" y="936" width="24" height="24"/><view viewBox="0 936 24 24"/><symbol id="awO" viewBox="0 0 24 24"><g fill="none" stroke="currentColor" stroke-width="2.25" stroke-linecap="round" stroke-linejoin="round"><path d="M9 14L4 9l5-5"/><path d="M20 18v-5a4 4 0 00-4-4H4"/></g></symbol><use xlink:href="#awO" y="960" width="24" height="24"/><view viewBox="0 960 24 24"/><symbol id="awP" viewBox="0 0 24 24"><path d="M16 18l6-6-6-6M8 6l-6 6 6 6" fill="none" stroke="currentColor" stroke-width="2.25" stroke-linecap="round" stroke-linejoin="round"/></symbol><use xlink:href="#awP" y="984" width="24" height="24"/><view viewBox="0 984 24 24"/><symbol id="awQ" viewBox="0 0 24 24"><g fill="none" stroke="currentColor" stroke-width="2.25" stroke-linecap="round" stroke-linejoin="round"><path d="M23 4v6h-6"/><path d="M20.49 15a9 9 0 11-2.12-9.36L23 10"/></g></symbol><use xlink:href="#awQ" y="1008" width="24" height="24"/><view viewBox="0 1008 24 24"/><symbol id="awR" viewBox="0 0 24 24"><g fill="none" stroke="currentColor" stroke-width="2.25" stroke-linecap="round" stroke-linejoin="round"><rect x="5" y="2" width="14" height="20" rx="2" ry="2"/><path d="M12 18h.01"/></g></symbol><use xlink:href="#awR" y="1032" width="24" height="24"/><view viewBox="0 1032 24 24"/><symbol id="awS" viewBox="0 0 24 24"><path d="M10 17a7 7 0 100-14 7 7 0 000 14zm11 4l-4.35-4.35" fill="none" stroke="currentColor" stroke-width="2.25" stroke-linecap="round" stroke-linejoin="round"/></symbol><use xlink:href="#awS" y="1056" width="24" height="24"/><view viewBox="0 1056 24 24"/><symbol id="awT" viewBox="0 0 24 24"><path d="M12 2l3.09 6.26L22 9.27l-5 4.87 1.18 6.88L12 17.77l-6.18 3.25L7 14.14 2 9.27l6.91-1.01L12 2z" fill="none" stroke="currentColor" stroke-width="2.25" stroke-linecap="round" stroke-linejoin="round"/></symbol><use xlink:href="#awT" y="1080" width="24" height="24"/><view viewBox="0 1080 24 24"/><symbol id="awU" viewBox="0 0 24 24"><path d="M12 2l3.09 6.26L22 9.27l-5 4.87 1.18 6.88L12 17.77l-6.18 3.25L7 14.14 2 9.27l6.91-1.01L12 2z" fill="none" stroke="currentColor" stroke-width="2.25" stroke-linecap="round" stroke-linejoin="round"/></symbol><use xlink:href="#awU" y="1104" width="24" height="24"/><view viewBox="0 1104 24 24"/><symbol id="awV" viewBox="0 0 24 24"><g fill="none" stroke="currentColor" stroke-width="2.25" stroke-linecap="round" stroke-linejoin="round"><path d="M12 13a4 4 0 100-8 4 4 0 000 8zm-6.75 7v-.667C5.25 17 9.314 16 12.25 16s7 1 7 3.333V20"/><path d="M23 12c0 6.075-4.925 11-11 11S1 18.075 1 12 5.925 1 12 1s11 4.925 11 11z"/></g></symbol><use xlink:href="#awV" y="1128" width="24" height="24"/><view viewBox="0 1128 24 24"/><symbol id="awW" viewBox="0 0 24 24"><g fill="none" stroke="currentColor" stroke-width="2.25" stroke-linecap="round" stroke-linejoin="round"><path d="M9 7.75h10"/><path fill="currentColor" fill-opacity=".15" stroke="none" d="M7 2.25h11v4.5H7z"/><path d="M19 4.077v-2.02c0-.445-.448-.807-1-.807H6c-.552 0-1 .362-1 .808v8.077c.004 2.175 1.562 4.153 4 5.077v4.615c0 1.338 1.343 2.423 3 2.423s3-1.085 3-2.423v-4.615c2.438-.924 3.997-2.902 4-5.077V7.75"/></g></symbol><use xlink:href="#awW" y="1152" width="24" height="24"/><view viewBox="0 1152 24 24"/><symbol id="awX" viewBox="0 0 24 24"><g fill="none" stroke="currentColor" stroke-width="2.25" stroke-linecap="round" stroke-linejoin="round"><rect x="3" y="4" width="18" height="18" rx="2" ry="2"/><path d="M16 2v4M8 2v4m-5 4h18"/></g></symbol><use xlink:href="#awX" y="1176" width="24" height="24"/><view viewBox="0 1176 24 24"/><symbol id="awY" viewBox="0 0 24 24"><g fill="none" stroke="currentColor" stroke-width="2.25" stroke-linecap="round" stroke-linejoin="round"><circle cx="9" cy="21" r="1"/><circle cx="20" cy="21" r="1"/><path d="M1 1h4l2.68 13.39a2 2 0 002 1.61h9.72a2 2 0 002-1.61L23 6H6"/></g></symbol><use xlink:href="#awY" y="1200" width="24" height="24"/><view viewBox="0 1200 24 24"/><symbol id="awZ" viewBox="0 0 24 24"><g fill="none" stroke="currentColor" stroke-width="2.25" stroke-linecap="round" stroke-linejoin="round"><circle fill="currentColor" fill-opacity=".15" cx="12" cy="12" r="3"/><path d="M19.4 15a1.65 1.65 0 00.33 1.82l.06.06a2 2 0 010 2.83 2 2 0 01-2.83 0l-.06-.06a1.65 1.65 0 00-1.82-.33 1.65 1.65 0 00-1 1.51V21a2 2 0 01-2 2 2 2 0 01-2-2v-.09A1.65 1.65 0 009 19.4a1.65 1.65 0 00-1.82.33l-.06.06a2 2 0 01-2.83 0 2 2 0 010-2.83l.06-.06a1.65 1.65 0 00.33-1.82 1.65 1.65 0 00-1.51-1H3a2 2 0 01-2-2 2 2 0 012-2h.09A1.65 1.65 0 004.6 9a1.65 1.65 0 00-.33-1.82l-.06-.06a2 2 0 010-2.83 2 2 0 012.83 0l.06.06a1.65 1.65 0 001.82.33H9a1.65 1.65 0 001-1.51V3a2 2 0 012-2 2 2 0 012 2v.09a1.65 1.65 0 001 1.51 1.65 1.65 0 001.82-.33l.06-.06a2 2 0 012.83 0 2 2 0 010 2.83l-.06.06a1.65 1.65 0 00-.33 1.82V9a1.65 1.65 0 001.51 1H21a2 2 0 012 2 2 2 0 01-2 2h-.09a1.65 1.65 0 00-1.51 1z"/></g></symbol><use xlink:href="#awZ" y="1224" width="24" height="24"/><view viewBox="0 1224 24 24"/><symbol id="awaa" viewBox="0 0 24 24"><g fill="none" stroke="currentColor" stroke-width="2.25" stroke-linecap="round" stroke-linejoin="round"><path d="M13 2H6a2 2 0 00-2 2v16a2 2 0 002 2h12a2 2 0 002-2V9z"/><path fill="currentColor" fill-opacity=".15" d="M12 2v8h8"/></g></symbol><use xlink:href="#awaa" y="1248" width="24" height="24"/><view viewBox="0 1248 24 24"/><symbol id="awab" viewBox="0 0 24 24"><path d="M17 3a2.828 2.828 0 114 4L7.5 20.5 2 22l1.5-5.5L17 3z" fill="none" stroke="currentColor" stroke-width="2.25" stroke-linecap="round" stroke-linejoin="round"/></symbol><use xlink:href="#awab" y="1272" width="24" height="24"/><view viewBox="0 1272 24 24"/><symbol id="awac" viewBox="0 0 24 24"><path d="M20.145 22.719l-8.151-.002H3.842a1.46 1.46 0 01-1.46-1.46v-3.913c1.526.621 3.278 1.157 4.278-.152 1-1.308 1-3.124 0-4.432-1-1.309-2.752-.772-4.277-.151V8.997c0-.997.65-1.764 1.457-1.764h5.654c-1.426-1.426-1.508-3.738-.082-5.164a3.65 3.65 0 015.163 0C16 3.494 15.987 5.806 14.56 7.232h5.585c.806 0 1.456.768 1.46 1.765l-.004 3.61c-1.525-.62-3.277-1.157-4.277.152a3.65 3.65 0 000 4.433c1 1.308 2.751.772 4.277.15l.003 3.917a1.46 1.46 0 01-1.46 1.46z" fill="none" stroke="currentColor" stroke-width="2.25" stroke-linecap="round" stroke-linejoin="round"/></symbol><use xlink:href="#awac" y="1296" width="24" height="24"/><view viewBox="0 1296 24 24"/><symbol id="awad" viewBox="0 0 24 24"><rect x="3" y="3" width="18" height="18" rx="2" ry="2" fill="none" stroke="currentColor" stroke-width="2.25" stroke-linecap="round" stroke-linejoin="round"/></symbol><use xlink:href="#awad" y="1320" width="24" height="24"/><view viewBox="0 1320 24 24"/><symbol id="awae" viewBox="0 0 24 24"><g fill="none" stroke="currentColor" stroke-width="2.25" stroke-linecap="round" stroke-linejoin="round"><path d="M4 19.5A2.5 2.5 0 016.5 17H20M4 14.5A2.5 2.5 0 016.5 12H20"/><path d="M6.5 2H20v20H6.5A2.5 2.5 0 014 19.5v-15A2.5 2.5 0 016.5 2v0z"/></g></symbol><use xlink:href="#awae" y="1344" width="24" height="24"/><view viewBox="0 1344 24 24"/><symbol id="awaf" viewBox="0 0 24 24"><path d="M3 12h18M3 6h18M3 18h18" fill="none" stroke="currentColor" stroke-width="2.25" stroke-linecap="round" stroke-linejoin="round"/></symbol><use xlink:href="#awaf" y="1368" width="24" height="24"/><view viewBox="0 1368 24 24"/><symbol id="awag" viewBox="0 0 24 24"><g fill="none" stroke="currentColor" stroke-width="2.25" stroke-linecap="round" stroke-linejoin="round"><path d="M23 12c0 6.075-4.925 11-11 11S1 18.075 1 12 5.925 1 12 1s11 4.925 11 11z"/><path d="M9.09 8a3 3 0 015.83 1c0 2-3 3-3 3m.08 5h.01"/></g></symbol><use xlink:href="#awag" y="1392" width="24" height="24"/><view viewBox="0 1392 24 24"/><symbol id="awah" viewBox="0 0 24 24"><path d="M19 12H5m7 7l-7-7 7-7" fill="none" stroke="currentColor" stroke-width="2.25" stroke-linecap="round" stroke-linejoin="round"/></symbol><use xlink:href="#awah" y="1416" width="24" height="24"/><view viewBox="0 1416 24 24"/><symbol id="awai" viewBox="0 0 24 24"><path d="M12 19V5m-7 7l7-7 7 7" fill="none" stroke="currentColor" stroke-width="2.25" stroke-linecap="round" stroke-linejoin="round"/></symbol><use xlink:href="#awai" y="1440" width="24" height="24"/><view viewBox="0 1440 24 24"/><symbol id="awaj" viewBox="0 0 24 24"><g fill="none" stroke="currentColor" stroke-width="2.25" stroke-linecap="round" stroke-linejoin="round"><ellipse fill="currentColor" fill-opacity=".15" cx="12.25" cy="19.5" rx="6.25" ry="2.5" stroke="none"/><path fill="currentColor" fill-opacity=".15" fill-rule="evenodd" clip-rule="evenodd" d="M12 13a4 4 0 100-8 4 4 0 000 8z"/><path d="M5.25 20v-.667C5.25 17 9.314 16 12.25 16s7 1 7 3.333V20"/><path d="M22.875 12c0 6.006-4.869 10.875-10.875 10.875S1.125 18.006 1.125 12 5.994 1.125 12 1.125 22.875 5.994 22.875 12z"/></g></symbol><use xlink:href="#awaj" y="1464" width="24" height="24"/><view viewBox="0 1464 24 24"/><symbol id="awak" viewBox="0 0 24 24"><g fill="none" stroke="currentColor" stroke-width="2.25" stroke-linecap="round" stroke-linejoin="round"><path d="M21.21 15.89A10 10 0 118 2.83"/><path fill="currentColor" fill-opacity=".15" d="M22 12A10 10 0 0012 2v10z"/></g></symbol><use xlink:href="#awak" y="1488" width="24" height="24"/><view viewBox="0 1488 24 24"/><symbol id="awal" viewBox="0 0 24 24"><g fill="none" stroke="currentColor" stroke-width="2.25" stroke-linecap="round" stroke-linejoin="round"><path fill="currentColor" fill-opacity=".15" d="M12.928 1.486a2 2 0 00-1.856 0L1.5 6.5l9.572 5.014a2 2 0 001.856 0L22.5 6.5l-9.572-5.014z"/><path d="M1.5 12l9.572 5.014a2 2 0 001.856 0L22.5 12m-21 5.5l9.572 5.014a2 2 0 001.856 0L22.5 17.5"/></g></symbol><use xlink:href="#awal" y="1512" width="24" height="24"/><view viewBox="0 1512 24 24"/><symbol id="awam" viewBox="0 0 24 24"><g fill="none" stroke="currentColor" stroke-width="2.25" stroke-linecap="round" stroke-linejoin="round"><circle cx="12" cy="12" r="10"/><path d="M2 12h20M12 2a15.3 15.3 0 014 10 15.3 15.3 0 01-4 10 15.3 15.3 0 01-4-10 15.3 15.3 0 014-10z"/></g></symbol><use xlink:href="#awam" y="1536" width="24" height="24"/><view viewBox="0 1536 24 24"/><symbol id="awan" viewBox="0 0 24 24"><g fill="none" stroke="currentColor" stroke-width="2.25" stroke-linecap="round" stroke-linejoin="round"><path d="M12 16a4 4 0 100-8 4 4 0 000 8z"/><path d="M16 8v5a3 3 0 006 0v-1a10 10 0 10-3.92 7.94"/></g></symbol><use xlink:href="#awan" y="1560" width="24" height="24"/><view viewBox="0 1560 24 24"/></svg>