<?xml version="1.0" encoding="utf-8"?><svg width="39" height="39" fill="none" xmlns="http://www.w3.org/2000/svg" viewBox="0 0 39 39"><path d="M10.561 16.251c-.362 0-.71.055-1.056.106.112-.377.227-.76.413-1.105.185-.5.474-.935.762-1.372.24-.473.664-.793.976-1.197.327-.394.772-.655 1.125-.982.346-.341.8-.512 1.16-.752.377-.216.705-.455 1.056-.57l.876-.36.77-.32-.788-3.15-.97.235c-.31.078-.689.169-1.12.278-.44.08-.91.304-1.433.507-.516.23-1.114.386-1.67.757-.56.354-1.204.65-1.773 1.124-.55.49-1.216.914-1.706 1.536-.537.582-1.066 1.193-1.477 1.888-.477.663-.8 1.391-1.141 2.111-.309.72-.558 1.456-.76 2.171a19.615 19.615 0 00-.625 3.96 20.242 20.242 0 00.046 2.84c.024.33.07.652.102.875l.04.273.043-.01a7.312 7.312 0 107.15-8.843zm17.875 0c-.362 0-.71.055-1.056.106.112-.377.227-.76.413-1.105.185-.5.474-.935.762-1.372.24-.473.664-.793.976-1.197.327-.394.772-.655 1.125-.982.346-.341.8-.512 1.16-.752.377-.216.705-.455 1.056-.57l.876-.36.77-.32-.788-3.15-.97.235c-.31.078-.689.169-1.12.278-.44.08-.91.304-1.433.507-.515.232-1.114.386-1.67.759-.56.354-1.204.65-1.773 1.124-.55.49-1.215.913-1.706 1.534-.537.582-1.066 1.193-1.477 1.888-.476.663-.8 1.391-1.141 2.111-.309.72-.558 1.456-.76 2.171a19.622 19.622 0 00-.625 3.96 20.257 20.257 0 00.046 2.84c.024.33.07.652.102.875l.04.273.043-.01a7.312 7.312 0 107.15-8.843z" fill="#2A2A2A"/></svg>