<svg width="128" height="50" viewBox="0 0 128 50" fill="none" xmlns="http://www.w3.org/2000/svg">
<g clip-path="url(#clip0_7106_11216)">
<g opacity="0.2">
<mask id="path-1-inside-1_7106_11216" fill="white">
<path fill-rule="evenodd" clip-rule="evenodd" d="M78 14.3553V35.6445L92.3555 50H113.645L128 35.6447V14.3553L113.645 0H92.3553L78 14.3553Z"/>
</mask>
<path d="M78 35.6445H77V36.0588L77.2929 36.3516L78 35.6445ZM78 14.3553L77.2929 13.6482L77 13.9411V14.3553H78ZM92.3555 50L91.6484 50.7071L91.9412 51H92.3555V50ZM113.645 50V51H114.059L114.352 50.7071L113.645 50ZM128 35.6447L128.707 36.3518L129 36.0589V35.6447H128ZM128 14.3553H129V13.9411L128.707 13.6482L128 14.3553ZM113.645 0L114.352 -0.707107L114.059 -1H113.645V0ZM92.3553 0V-1H91.9411L91.6482 -0.707107L92.3553 0ZM79 35.6445V14.3553H77V35.6445H79ZM77.2929 36.3516L91.6484 50.7071L93.0626 49.2929L78.7071 34.9374L77.2929 36.3516ZM113.645 49H92.3555V51H113.645V49ZM127.293 34.9376L112.938 49.2929L114.352 50.7071L128.707 36.3518L127.293 34.9376ZM127 14.3553V35.6447H129V14.3553H127ZM128.707 13.6482L114.352 -0.707107L112.938 0.707107L127.293 15.0624L128.707 13.6482ZM92.3553 1H113.645V-1H92.3553V1ZM91.6482 -0.707107L77.2929 13.6482L78.7071 15.0624L93.0624 0.707107L91.6482 -0.707107Z" fill="#2A2A2A" mask="url(#path-1-inside-1_7106_11216)"/>
</g>
<g opacity="0.4">
<mask id="path-3-inside-2_7106_11216" fill="white">
<path fill-rule="evenodd" clip-rule="evenodd" d="M39.2656 14.3553V35.6445L53.6211 50H74.9103L89.2656 35.6447V14.3553L74.9103 0H53.621L39.2656 14.3553Z"/>
</mask>
<path d="M39.2656 35.6445H38.2656V36.0588L38.5585 36.3516L39.2656 35.6445ZM39.2656 14.3553L38.5585 13.6482L38.2656 13.9411V14.3553H39.2656ZM53.6211 50L52.914 50.7071L53.2069 51H53.6211V50ZM74.9103 50V51H75.3245L75.6174 50.7071L74.9103 50ZM89.2656 35.6447L89.9727 36.3518L90.2656 36.0589V35.6447H89.2656ZM89.2656 14.3553H90.2656V13.9411L89.9727 13.6482L89.2656 14.3553ZM74.9103 0L75.6174 -0.707107L75.3245 -1H74.9103V0ZM53.621 0V-1H53.2068L52.9139 -0.707107L53.621 0ZM40.2656 35.6445V14.3553H38.2656V35.6445H40.2656ZM38.5585 36.3516L52.914 50.7071L54.3282 49.2929L39.9727 34.9374L38.5585 36.3516ZM74.9103 49H53.6211V51H74.9103V49ZM88.5585 34.9376L74.2032 49.2929L75.6174 50.7071L89.9727 36.3518L88.5585 34.9376ZM88.2656 14.3553V35.6447H90.2656V14.3553H88.2656ZM89.9727 13.6482L75.6174 -0.707107L74.2032 0.707107L88.5585 15.0624L89.9727 13.6482ZM53.621 1H74.9103V-1H53.621V1ZM52.9139 -0.707107L38.5585 13.6482L39.9727 15.0624L54.3281 0.707107L52.9139 -0.707107Z" fill="#2A2A2A" mask="url(#path-3-inside-2_7106_11216)"/>
</g>
<path fill-rule="evenodd" clip-rule="evenodd" d="M0 14.3553V35.6445L14.3555 50H35.6447L50 35.6447V14.3553L35.6447 0H14.3553L0 14.3553Z" fill="#0047FF"/>
<path d="M31 22L23.3452 30L19 25.3798" stroke="white" stroke-width="1.77985" stroke-linecap="square"/>
</g>
<defs>
<clipPath id="clip0_7106_11216">
<rect width="128" height="50" fill="white"/>
</clipPath>
</defs>
</svg>
