<svg width="130" height="50" viewBox="0 0 130 50" fill="none" xmlns="http://www.w3.org/2000/svg"><g clip-path="url(#clip0_7106_11231)"><path opacity=".4" d="M64.676.933a.5.5 0 01.648 0l6.759 5.76a1.5 1.5 0 00.854.354l8.851.706a.5.5 0 01.459.459l.706 8.851a1.5 1.5 0 00.354.854l5.76 6.759a.5.5 0 010 .648l-5.76 6.759a1.5 1.5 0 00-.354.854l-.706 8.851a.5.5 0 01-.459.459l-8.851.706a1.5 1.5 0 00-.854.354l-6.759 5.76a.5.5 0 01-.648 0l-6.759-5.76a1.5 1.5 0 00-.854-.354l-8.851-.706a.5.5 0 01-.459-.459l-.706-8.851a1.5 1.5 0 00-.354-.854l-5.76-6.759a.5.5 0 010-.648l5.76-6.759a1.5 1.5 0 00.354-.854l.706-8.851a.5.5 0 01.459-.459l8.851-.706a1.5 1.5 0 00.854-.354l6.759-5.76z" stroke="#2A2A2A"/><path opacity=".2" d="M104.676.933a.5.5 0 01.648 0l6.759 5.76a1.5 1.5 0 00.854.354l8.851.706a.5.5 0 01.459.459l.706 8.851c.026.315.149.614.354.854l5.76 6.759a.5.5 0 010 .648l-5.76 6.759c-.205.24-.328.539-.354.854l-.706 8.851a.5.5 0 01-.459.459l-8.851.706a1.5 1.5 0 00-.854.354l-6.759 5.76a.5.5 0 01-.648 0l-6.759-5.76a1.5 1.5 0 00-.854-.354l-8.851-.706a.5.5 0 01-.459-.459l-.706-8.851a1.5 1.5 0 00-.354-.854l-5.76-6.759a.5.5 0 010-.648l5.76-6.759a1.5 1.5 0 00.354-.854l.706-8.851a.5.5 0 01.459-.459l8.851-.706a1.5 1.5 0 00.854-.354l6.759-5.76z" stroke="#2A2A2A"/><path d="M24.351.553a1 1 0 011.298 0l6.758 5.76a1 1 0 00.57.235l8.851.707a1 1 0 01.917.917l.707 8.852a1 1 0 00.236.569l5.76 6.758a1 1 0 010 1.298l-5.76 6.758a1 1 0 00-.236.57l-.706 8.851a1 1 0 01-.918.917l-8.852.707a1 1 0 00-.569.236l-6.758 5.76a1 1 0 01-1.298 0l-6.758-5.76a1 1 0 00-.57-.236l-8.851-.706a1 1 0 01-.917-.918l-.707-8.852a1 1 0 00-.236-.569L.552 25.65a1 1 0 010-1.298l5.76-6.758a1 1 0 00.236-.57l.707-8.851a1 1 0 01.917-.917l8.852-.707a1 1 0 00.569-.236L24.35.552z" fill="#0047FF"/><path d="M25 16.695l2.266 4.592.175.353.39.057 5.068.736-3.667 3.575-.283.275.067.389.866 5.047-4.533-2.383-.349-.183-.349.183-4.533 2.383.866-5.047.067-.389-.283-.275-3.667-3.575 5.068-.736.39-.057.175-.353L25 16.695z" stroke="#fff" stroke-width="1.5"/></g><defs><clipPath id="clip0_7106_11231"><path fill="#fff" d="M0 0h130v50H0z"/></clipPath></defs></svg>