<svg width="128" height="50" viewBox="0 0 128 50" fill="none" xmlns="http://www.w3.org/2000/svg"><g clip-path="url(#clip0_7106_11216)"><g opacity=".2"><mask id="path-1-inside-1_7106_11216" fill="#fff"><path fill-rule="evenodd" clip-rule="evenodd" d="M78 14.355v21.29L92.356 50h21.289L128 35.645v-21.29L113.645 0h-21.29L78 14.355z"/></mask><path d="M78 35.645h-1v.414l.293.293.707-.707zm0-21.29l-.707-.707-.293.293v.414h1zM92.356 50l-.708.707.293.293h.415v-1zm21.289 0v1h.414l.293-.293-.707-.707zM128 35.645l.707.707.293-.293v-.414h-1zm0-21.29h1v-.414l-.293-.293-.707.707zM113.645 0l.707-.707-.293-.293h-.414v1zm-21.29 0v-1h-.414l-.293.293.707.707zM79 35.645v-21.29h-2v21.29h2zm-1.707.707l14.355 14.355 1.415-1.414-14.356-14.356-1.414 1.415zM113.645 49h-21.29v2h21.29v-2zm13.648-14.062l-14.355 14.355 1.414 1.414 14.355-14.355-1.414-1.414zM127 14.355v21.29h2v-21.29h-2zm1.707-.707L114.352-.707 112.938.707l14.355 14.355 1.414-1.414zM92.355 1h21.29v-2h-21.29v2zm-.707-1.707L77.293 13.648l1.414 1.414L93.062.707 91.648-.707z" fill="#2A2A2A" mask="url(#path-1-inside-1_7106_11216)"/></g><g opacity=".4"><mask id="path-3-inside-2_7106_11216" fill="#fff"><path fill-rule="evenodd" clip-rule="evenodd" d="M39.266 14.355v21.29L53.62 50h21.29l14.355-14.355v-21.29L74.91 0H53.621L39.266 14.355z"/></mask><path d="M39.266 35.645h-1v.414l.293.293.707-.707zm0-21.29l-.707-.707-.293.293v.414h1zM53.62 50l-.707.707.293.293h.414v-1zm21.29 0v1h.413l.293-.293L74.91 50zm14.355-14.355l.707.707.293-.293v-.414h-1zm0-21.29h1v-.414l-.293-.293-.707.707zM74.91 0l.707-.707L75.324-1h-.414v1zM53.621 0v-1h-.414l-.293.293.707.707zM40.266 35.645v-21.29h-2v21.29h2zm-1.707.707l14.355 14.355 1.414-1.414-14.355-14.356-1.414 1.415zM74.91 49H53.621v2h21.29v-2zm13.648-14.062L74.203 49.293l1.414 1.414 14.356-14.355-1.415-1.414zm-.292-20.583v21.29h2v-21.29h-2zm1.707-.707L75.617-.707 74.203.707l14.355 14.355 1.415-1.414zM53.62 1h21.29v-2H53.62v2zm-.707-1.707L38.559 13.648l1.414 1.414L54.328.707 52.914-.707z" fill="#2A2A2A" mask="url(#path-3-inside-2_7106_11216)"/></g><path fill-rule="evenodd" clip-rule="evenodd" d="M0 14.355v21.29L14.355 50h21.29L50 35.645v-21.29L35.645 0h-21.29L0 14.355z" fill="#0047FF"/><path d="M31 22l-7.655 8L19 25.38" stroke="#fff" stroke-width="1.78" stroke-linecap="square"/></g><defs><clipPath id="clip0_7106_11216"><path fill="#fff" d="M0 0h128v50H0z"/></clipPath></defs></svg>